<svg xmlns="http://www.w3.org/2000/svg" width="3169.848" height="605.851" fill="none" xmlns:v="https://vecta.io/nano"><style><![CDATA[.B{color-interpolation-filters:sRGB}.C{flood-opacity:0}.D{fill:#19427e}.E{fill:#de0000}]]></style><path d="M1251.274 173.252h747.06c31.684 0 57.378 25.7 57.378 57.378V432.6h-747.06c-31.684 0-57.378-25.7-57.378-57.378zm-352 40.028v182.6H869.2v-59.882l1.88-74.92-51.557 79.484h-21.75l-52.363-80.3 2.417 75.725v59.882H717.76v-182.6h27.927l62.836 96.133 62.836-96.133zm163.722 160.3v22.288h-114.93v-182.6h109.56v22.288h-78.948v52.632h68.207v22.288h-68.207V373.6zm82.934 26.316c-24.88 0-45.822-5.37-62.83-16.112l8.595-21.75c16.284 9.846 34.37 14.77 54.233 14.77 11.636 0 21.218-2.596 28.735-7.787 7.7-5.192 11.544-12.442 11.544-21.75 0-5.73-1.87-10.562-5.634-14.5-3.58-3.938-8.148-7.16-13.7-9.667-5.37-2.685-12.715-5.73-22.022-9.13-11.636-4.117-21.127-7.966-28.47-11.547-7.333-3.76-13.6-8.95-18.797-15.575-5.187-6.624-7.78-14.948-7.78-24.973 0-16.65 6-29.45 17.994-38.4 11.992-9.13 27.656-13.695 46.992-13.695 20.943 0 39.464 5.28 55.576 15.843l-8.86 21.482c-15.033-9.488-30.34-14.232-45.914-14.232-10.57 0-19.153 2.327-25.786 6.982-6.62 4.654-9.926 11.457-9.926 20.408 0 5.37 1.698 9.936 5.095 13.695 3.58 3.76 8.056 6.892 13.426 9.398s12.715 5.46 22.022 8.86c11.992 4.475 21.666 8.593 29 12.352 7.344 3.76 13.6 9.04 18.797 15.843 5.37 6.624 8.056 15.038 8.056 25.242 0 16.828-6.357 30.075-19.06 39.742-12.53 9.667-29.63 14.5-51.296 14.5z" class="D"/><path d="M1405.253 342.71h-70.357l-19.06 53.17h-30.617l70.632-185.016h28.723l71.16 185.016h-31.41zm-7.78-22.02l-27.392-76.53-27.392 76.53zm82.704-107.41h30.617v182.6h-30.617zm146.394 0c19.336 0 35.804 3.938 49.414 11.815 13.6 7.877 23.892 18.707 30.88 32.492 6.977 13.784 10.466 29.36 10.466 46.724 0 17.723-3.49 33.566-10.466 47.53-6.99 13.784-17.282 24.615-30.88 32.492-13.6 7.698-30.077 11.547-49.414 11.547h-66.857v-182.6zm0 160.043c18.98 0 33.658-6.176 44.043-18.528 10.558-12.352 15.836-29.09 15.836-50.215 0-20.766-5.28-37.415-15.836-49.946-10.385-12.53-25.063-18.797-44.043-18.797h-36.25V373.32zm202.234 3.49c6.082 0 11.453-1.074 16.112-3.222 4.648-2.327 9.03-5.55 13.15-9.667l9.135 19.334c-10.925 10.92-24.97 16.38-42.16 16.38-18.085 0-32.67-5.55-43.768-16.65-10.925-11.278-18.177-27.032-21.758-47.26h-23.628v-22.02h21.218c-.184-2.148-.275-5.37-.275-9.667 0-4.475.092-7.787.275-9.936h-21.218v-22.02h23.628c3.764-19.692 11.108-34.998 22.022-45.918 11.097-10.92 25.602-16.38 43.504-16.38 16.467 0 30.525 5.37 42.16 16.112l-9.398 19.87c-8.412-8.772-18.085-13.158-29-13.158-20.77 0-33.658 13.158-38.673 39.474h54.245v22.02H1787.7c-.172 2.148-.264 5.46-.264 9.936 0 4.296.092 7.52.264 9.667h56.666v22.02h-54.51c5.003 27.4 17.982 41.085 38.937 41.085zm117.923 23.093c-24.9 0-45.833-5.37-62.84-16.112l8.595-21.75c16.295 9.846 34.37 14.77 54.245 14.77 11.636 0 21.207-2.596 28.735-7.787 7.69-5.192 11.544-12.442 11.544-21.75 0-5.73-1.882-10.562-5.646-14.5-3.58-3.938-8.136-7.16-13.7-9.667-5.37-2.685-12.715-5.73-22.022-9.13-11.636-4.117-21.127-7.966-28.46-11.547-7.344-3.76-13.6-8.95-18.797-15.575-5.198-6.624-7.792-14.948-7.792-24.973 0-16.65 6.002-29.45 17.994-38.4 11.992-9.13 27.656-13.695 46.992-13.695 20.943 0 39.476 5.28 55.588 15.843l-8.86 21.482c-15.044-9.488-30.353-14.232-45.925-14.232-10.558 0-19.153 2.327-25.774 6.982s-9.938 11.457-9.938 20.408c0 5.37 1.698 9.936 5.107 13.695 3.58 3.76 8.056 6.892 13.426 9.398s12.703 5.46 22 8.86c12.003 4.475 21.666 8.593 29 12.352 7.333 3.76 13.6 9.04 18.797 15.843 5.37 6.624 8.056 15.038 8.056 25.242 0 16.828-6.357 30.075-19.072 39.742-12.53 9.667-29.63 14.5-51.284 14.5z" fill="#fff"/><path d="M2225.1 373.6v22.288h-114.928v-182.6h109.557v22.288h-78.952v52.632H2209v22.288h-68.21V373.6zm189.014-160.31v182.6l-26.853.27-98.552-136.412 2.146 62.836v73.308h-30.617v-182.6h27.128l98.277 136.412-2.146-68.206V213.28zm163.837 160.31v22.288h-114.928v-182.6h109.557v22.288h-78.94v52.632h68.2v22.288h-68.2V373.6zm97.175-54.78h-31.42v77.068H2613.1v-182.6h64.183c22.022 0 38.58 4.475 49.678 13.426s16.65 21.572 16.65 37.862c0 13.068-3.133 23.81-9.398 32.223-6.266 8.235-15.664 13.963-28.195 17.186l57.194 81.9h-35.448zm-31.42-22.288h33.566c23.812 0 35.712-10.204 35.712-30.612 0-9.846-3.04-17.365-9.123-22.556-5.9-5.192-14.77-7.787-26.59-7.787h-33.566zm293.315 12.62v76.53c-7.344 4.296-16.65 7.698-27.932 10.204s-23.536 3.76-36.79 3.76c-20.587 0-37.95-4.296-52.088-12.89-14.15-8.772-24.8-20.408-31.96-34.91-6.977-14.5-10.477-30.344-10.477-47.53 0-17.007 3.672-32.67 11.017-46.992 7.333-14.5 18.35-26.047 33.027-34.64 14.86-8.593 32.763-12.89 53.706-12.89 11.453 0 22.286 1.8 32.487 5.37 10.385 3.4 19.164 8.145 26.325 14.232l-9.938 20.945c-5.726-5.192-12.887-9.398-21.482-12.62s-17.73-4.834-27.392-4.834c-14.138 0-26.313 3.133-36.515 9.398-10.03 6.266-17.638 14.86-22.825 25.78-5.198 10.74-7.792 22.914-7.792 36.52 0 13.784 2.42 26.137 7.253 37.057 5.015 10.92 12.256 19.513 21.746 25.78 9.674 6.266 21.3 9.398 34.91 9.398 12.36 0 24.076-1.343 35.184-4.028v-63.64zm38.363-95.865h30.617v182.6h-30.617zM3169.85 373.6v22.288h-114.928v-182.6h109.557v22.288h-78.952v52.632h68.21v22.288h-68.21V373.6z" class="E"/><defs><filter id="A" x="305.396" y="27.333" width="151.681" height="201.568" filterUnits="userSpaceOnUse" class="B"><feFlood result="A" class="C"/><feColorMatrix in="SourceAlpha" values="0 0 0 0 0 0 0 0 0 0 0 0 0 0 0 0 0 0 127 0"/><feOffset dx="1" dy="1"/><feGaussianBlur stdDeviation="1.5"/><feColorMatrix values="0 0 0 0 0 0 0 0 0 0 0 0 0 0 0 0 0 0 0.35 0"/><feBlend in2="A"/><feBlend in="SourceGraphic"/></filter><filter id="B" x="305.439" y="431.616" width="151.681" height="201.568" filterUnits="userSpaceOnUse" class="B"><feFlood result="A" class="C"/><feColorMatrix in="SourceAlpha" values="0 0 0 0 0 0 0 0 0 0 0 0 0 0 0 0 0 0 127 0"/><feOffset dx="1" dy="1"/><feGaussianBlur stdDeviation="1.5"/><feColorMatrix values="0 0 0 0 0 0 0 0 0 0 0 0 0 0 0 0 0 0 0.35 0"/><feBlend in2="A"/><feBlend in="SourceGraphic"/></filter><filter id="C" x="477.613" y="262.396" width="201.568" height="151.681" filterUnits="userSpaceOnUse" class="B"><feFlood result="A" class="C"/><feColorMatrix in="SourceAlpha" values="0 0 0 0 0 0 0 0 0 0 0 0 0 0 0 0 0 0 127 0"/><feOffset dx="1" dy="1"/><feGaussianBlur stdDeviation="1.5"/><feColorMatrix values="0 0 0 0 0 0 0 0 0 0 0 0 0 0 0 0 0 0 0.35 0"/><feBlend in2="A"/><feBlend in="SourceGraphic"/></filter><filter id="D" x="81.334" y="262.438" width="201.568" height="151.681" filterUnits="userSpaceOnUse" class="B"><feFlood result="A" class="C"/><feColorMatrix in="SourceAlpha" values="0 0 0 0 0 0 0 0 0 0 0 0 0 0 0 0 0 0 127 0"/><feOffset dx="1" dy="1"/><feGaussianBlur stdDeviation="1.5"/><feColorMatrix values="0 0 0 0 0 0 0 0 0 0 0 0 0 0 0 0 0 0 0.35 0"/><feBlend in2="A"/><feBlend in="SourceGraphic"/></filter><filter id="E" x="151.033" y="401" width="168.934" height="169" filterUnits="userSpaceOnUse" class="B"><feFlood result="A" class="C"/><feColorMatrix in="SourceAlpha" values="0 0 0 0 0 0 0 0 0 0 0 0 0 0 0 0 0 0 127 0"/><feOffset dx="1" dy="1"/><feGaussianBlur stdDeviation="1.5"/><feColorMatrix values="0 0 0 0 0 0 0 0 0 0 0 0 0 0 0 0 0 0 0.35 0"/><feBlend in2="A"/><feBlend in="SourceGraphic"/></filter><filter id="F" x="440.033" y="106" width="168.934" height="169" filterUnits="userSpaceOnUse" class="B"><feFlood result="A" class="C"/><feColorMatrix in="SourceAlpha" values="0 0 0 0 0 0 0 0 0 0 0 0 0 0 0 0 0 0 127 0"/><feOffset dx="1" dy="1"/><feGaussianBlur stdDeviation="1.5"/><feColorMatrix values="0 0 0 0 0 0 0 0 0 0 0 0 0 0 0 0 0 0 0.35 0"/><feBlend in2="A"/><feBlend in="SourceGraphic"/></filter><filter id="G" x="440" y="401.034" width="169" height="168.934" filterUnits="userSpaceOnUse" class="B"><feFlood result="A" class="C"/><feColorMatrix in="SourceAlpha" values="0 0 0 0 0 0 0 0 0 0 0 0 0 0 0 0 0 0 127 0"/><feOffset dx="1" dy="1"/><feGaussianBlur stdDeviation="1.5"/><feColorMatrix values="0 0 0 0 0 0 0 0 0 0 0 0 0 0 0 0 0 0 0.35 0"/><feBlend in2="A"/><feBlend in="SourceGraphic"/></filter><filter id="H" x="151" y="106.031" width="169" height="168.934" filterUnits="userSpaceOnUse" class="B"><feFlood result="A" class="C"/><feColorMatrix in="SourceAlpha" values="0 0 0 0 0 0 0 0 0 0 0 0 0 0 0 0 0 0 127 0"/><feOffset dx="1" dy="1"/><feGaussianBlur stdDeviation="1.5"/><feColorMatrix values="0 0 0 0 0 0 0 0 0 0 0 0 0 0 0 0 0 0 0.35 0"/><feBlend in2="A"/><feBlend in="SourceGraphic"/></filter><filter id="I" x="254.311" y="206" width="142.711" height="138.275" filterUnits="userSpaceOnUse" class="B"><feFlood result="A" class="C"/><feColorMatrix in="SourceAlpha" values="0 0 0 0 0 0 0 0 0 0 0 0 0 0 0 0 0 0 127 0"/><feOffset dy="4"/><feGaussianBlur stdDeviation="2"/><feColorMatrix values="0 0 0 0 0 0 0 0 0 0 0 0 0 0 0 0 0 0 0.25 0"/><feBlend in2="A"/><feBlend in="SourceGraphic"/></filter></defs><g transform="translate(-81.334 -27.333)"><g filter="url(#A)"><path d="M387.315 224.67l-6.878-142.063h-.4l-6.88 142.075c-12.018-1.148-23.79-5.238-34.045-12.318-18.997-13.12-30.776-34.68-31.508-57.678l-.004-.183c-.122-8.69 2.47-17.15 4.918-24.42 3.464-10.27 8.122-19.613 11.796-26.6 8.677-16.522 18.97-32.863 30.59-48.568 4.967-6.71 10.96-14.57 17.796-22.05a10.22 10.22 0 0 1 7.537-3.321 10.21 10.21 0 0 1 7.536 3.325c10.5 11.49 20.75 25.174 31.364 41.838 10.02 15.716 20.374 32.594 27.258 51.035 2.948 7.904 6.012 17.28 6.44 27.04.275 6.335-.78 13.44-3.143 21.122l.2.058-.2-.058c-3.456 11.245-9.725 21.633-18.127 30.035h0v.001h-.001a72.63 72.63 0 0 1-6.875 6.058c-10.974 8.494-24.017 13.398-37.374 14.685z" fill="#fff" stroke="#000" stroke-width=".4"/></g><g filter="url(#B)"><path d="M373.202 433.846l6.88 142.064h.4l6.878-142.075c12.018 1.147 23.792 5.238 34.045 12.318 18.997 13.118 30.777 34.68 31.51 57.677l.004.184c.122 8.7-2.47 17.15-4.918 24.42-3.464 10.27-8.123 19.612-11.797 26.6-8.676 16.52-18.968 32.862-30.59 48.568-4.967 6.71-10.96 14.57-17.796 22.05-1.93 2.113-4.67 3.32-7.536 3.32s-5.602-1.207-7.536-3.324c-10.49-11.5-20.75-25.174-31.365-41.838-10.02-15.717-20.373-32.594-27.258-51.035-2.948-7.905-6.01-17.28-6.44-27.04-.274-6.335.782-13.44 3.144-21.122l-.2-.058.2.058c3.456-11.246 9.724-21.633 18.126-30.035v-.001h.001a72.92 72.92 0 0 1 6.876-6.059c10.974-8.494 24.016-13.398 37.373-14.685z" fill="#fff" stroke="#000" stroke-width=".4"/></g><g filter="url(#C)" class="E"><path d="M675.182 337.237c0-2.924-1.23-5.715-3.386-7.684-7.49-6.843-15.356-12.842-22.066-17.8-15.713-11.626-32.063-21.923-48.594-30.605-7-3.675-16.353-8.34-26.64-11.81-7.27-2.448-15.76-5.05-24.488-4.928l-.187.004c-23.06.734-44.68 12.545-57.836 31.595-7.14 10.342-11.25 22.225-12.372 34.348l142.284 6.89-142.273 6.89c1.26 13.465 6.184 26.622 14.746 37.685a73.19 73.19 0 0 0 6.075 6.895c8.426 8.426 18.842 14.712 30.12 18.177 7.7 2.367 14.826 3.428 21.2 3.152 9.79-.43 19.192-3.503 27.1-6.452 18.463-6.893 35.356-17.256 51.072-27.277 16.67-10.62 30.366-20.886 41.866-31.385a10.41 10.41 0 0 0 3.389-7.684z"/></g><g filter="url(#D)" class="D"><path d="M83.333 337.28c0 2.923 1.23 5.714 3.386 7.684 7.49 6.842 15.355 12.84 22.066 17.81 15.713 11.627 32.063 21.924 48.594 30.605 7 3.676 16.353 8.34 26.64 11.81 7.27 2.448 15.76 5.05 24.488 4.93l.186-.004c23.06-.734 44.682-12.546 57.836-31.595 7.142-10.342 11.25-22.225 12.373-34.348l-142.285-6.89 142.273-6.89c-1.26-13.466-6.183-26.623-14.746-37.686a72.77 72.77 0 0 0-6.075-6.894c-8.425-8.426-18.84-14.712-30.12-18.178-7.698-2.366-14.826-3.427-21.19-3.152-9.79.43-19.192 3.504-27.1 6.453-18.463 6.893-35.356 17.256-51.072 27.277-16.672 10.62-30.366 20.885-41.866 31.385a10.41 10.41 0 0 0-3.39 7.684z"/></g><g filter="url(#E)" class="D"><path d="M156.08 562.95a10.41 10.41 0 0 0 7.828 3.038c10.134-.456 19.938-1.777 28.196-3.01 19.332-2.9 38.174-7.17 56.002-12.72 7.55-2.35 17.46-5.667 27.187-10.487 6.873-3.4 14.715-7.572 20.8-13.83l.13-.134c15.787-16.826 22.723-40.466 18.555-63.237-2.264-12.363-7.76-23.67-15.54-33.037l-105.48 95.74 95.73-105.473c-10.412-8.63-23.197-14.453-37.074-16.22a73.05 73.05 0 0 0-9.171-.579c-11.916 0-23.726 2.92-34.15 8.444-7.117 3.77-12.907 8.06-17.212 12.754-6.62 7.228-11.094 16.048-14.6 23.725-8.18 17.93-12.798 37.202-16.826 55.4-4.28 19.298-6.703 36.24-7.41 51.796a10.41 10.41 0 0 0 3.037 7.831z"/></g><g filter="url(#F)" class="E"><path d="M601.92 111.05a10.41 10.41 0 0 0-7.828-3.038c-10.134.456-19.938 1.777-28.196 3.01-19.332 2.9-38.174 7.17-56.002 12.72-7.55 2.35-17.46 5.667-27.187 10.487-6.873 3.4-14.715 7.572-20.8 13.83l-.13.134c-15.787 16.826-22.723 40.466-18.555 63.237 2.264 12.363 7.76 23.67 15.54 33.037l105.48-95.74-95.73 105.473c10.412 8.63 23.197 14.453 37.074 16.22a73.05 73.05 0 0 0 9.171.579c11.916 0 23.726-2.92 34.15-8.444 7.117-3.77 12.907-8.06 17.212-12.754 6.62-7.228 11.094-16.048 14.6-23.725 8.18-17.93 12.798-37.202 16.826-55.4 4.28-19.298 6.703-36.24 7.41-51.796a10.41 10.41 0 0 0-3.037-7.831z"/></g><g filter="url(#G)" class="E"><path d="M601.95 562.92a10.41 10.41 0 0 0 3.038-7.828c-.456-10.134-1.777-19.938-3.01-28.196-2.9-19.332-7.17-38.174-12.72-56.002-2.35-7.55-5.667-17.46-10.487-27.187-3.4-6.873-7.572-14.715-13.83-20.8l-.134-.13c-16.826-15.787-40.466-22.723-63.237-18.555-12.363 2.264-23.67 7.76-33.037 15.54l95.74 105.48-105.473-95.73c-8.63 10.412-14.453 23.197-16.22 37.074a73.05 73.05 0 0 0-.579 9.171c0 11.916 2.92 23.726 8.444 34.15 3.77 7.117 8.06 12.907 12.754 17.212 7.228 6.62 16.048 11.094 23.725 14.6 17.93 8.18 37.202 12.798 55.4 16.826 19.298 4.28 36.24 6.703 51.796 7.41a10.41 10.41 0 0 0 7.831-3.037z"/></g><g filter="url(#H)" class="D"><path d="M156.05 111.08a10.41 10.41 0 0 0-3.038 7.828c.456 10.134 1.777 19.938 3.01 28.196 2.9 19.332 7.17 38.174 12.72 56.002 2.35 7.55 5.667 17.46 10.487 27.187 3.4 6.873 7.572 14.715 13.83 20.8l.134.13c16.826 15.787 40.466 22.723 63.237 18.555 12.363-2.264 23.67-7.76 33.037-15.54l-95.74-105.48 105.473 95.73c8.63-10.412 14.453-23.197 16.22-37.074a73.05 73.05 0 0 0 .579-9.171c0-11.916-2.92-23.726-8.444-34.15-3.77-7.117-8.06-12.907-12.754-17.212-7.228-6.62-16.048-11.094-23.725-14.6-17.93-8.18-37.202-12.798-55.4-16.826-19.298-4.28-36.24-6.703-51.796-7.41a10.41 10.41 0 0 0-7.831 3.037z"/></g><circle stroke-width="11" stroke="#fff" fill="#fff" r="165" cy="336.5" cx="379.5"/><circle stroke-width="2" stroke-opacity=".8" stroke="#000" r="145.5" cy="336.5" cx="379.5"/><path d="M380.156 206l12.866 13.397-119.387 114.648a8 8 0 0 1-11.311-.229l-1.783-1.857a8 8 0 0 1 .229-11.311z" filter="url(#I)" class="D"/><path d="M339.3 271.1h-27.148v-37.722a8 8 0 0 1 8-8H331.3a8 8 0 0 1 8 8zm31.434-48.02l12.83-13.43L499.66 320.554a8 8 0 0 1 .259 11.311l-1.778 1.862a8 8 0 0 1-11.311.258zM280.72 341.558h14.288V423H280.72zm185.745 0h14.288V423h-14.288zm-71.745 69.298c5.04 0 9.286-.862 12.736-2.587 3.582-1.857 6.898-4.5 9.95-7.96l6.766 10.945c-7.828 9.154-18.176 13.73-31.044 13.73-13.134 0-23.615-4.245-31.442-12.736s-12.935-20.563-15.323-36.218H328.85V362.3h16.12c-.133-1.725-.2-4.444-.2-8.16 0-3.98.066-6.9.2-8.756h-16.12v-13.532h17.512c2.388-15.257 7.495-26.998 15.323-35.223 7.96-8.358 18.44-12.537 31.442-12.537 12.338 0 22.686 4.444 31.044 13.333l-6.965 11.343c-3.052-3.45-6.368-6.103-9.95-7.96-3.45-1.857-7.63-2.786-12.537-2.786-16.318 0-26.335 11.277-30.05 33.83h40.596v13.532h-42c-.133 1.857-.2 4.842-.2 8.955 0 3.582.066 6.235.2 7.96h42v13.73H364.47c3.45 23.217 13.532 34.825 30.248 34.825z" class="D"/></g></svg>