<svg width="666" height="400" fill="none" xmlns="http://www.w3.org/2000/svg"><g clip-path="url(#a)"><path fill="#fff" d="M0 0h666v400H0z"/><path d="M156 15.5h353c11.322 0 20.5 9.178 20.5 20.5v16c0 11.322-9.178 20.5-20.5 20.5H156c-11.322 0-20.5-9.178-20.5-20.5V36c0-11.322 9.178-20.5 20.5-20.5z" fill="#6C6C6C" stroke="#6C6C6C" stroke-width="3"/><path fill="url(#b)" d="M85 89h172v24H85z"/><path fill="url(#c)" d="M84 152h271v24H84z"/><path fill="url(#d)" fill-opacity=".98" d="M84 215h345v24H84z"/><path fill="url(#e)" fill-opacity=".98" d="M85 278h372v24H85z"/><path fill="url(#f)" fill-opacity=".98" d="M85 342h454v24H85z"/><path d="M156.463 32.812h3.212c-.065 1.052-.355 1.987-.87 2.803-.509.817-1.221 1.454-2.138 1.912-.91.459-2.005.688-3.287.688-1.003 0-1.901-.172-2.696-.516a5.73 5.73 0 0 1-2.041-1.504c-.559-.651-.985-1.44-1.279-2.363-.293-.924-.44-1.959-.44-3.105v-1.084c0-1.146.15-2.181.451-3.105.308-.93.745-1.722 1.311-2.374a5.828 5.828 0 0 1 2.051-1.504c.795-.35 1.683-.526 2.664-.526 1.304 0 2.403.236 3.298.709.903.472 1.601 1.124 2.095 1.955.501.83.802 1.776.902 2.836h-3.222c-.036-.63-.162-1.164-.376-1.6a2.134 2.134 0 0 0-.978-1c-.43-.229-1.002-.344-1.719-.344-.537 0-1.006.1-1.407.301a2.62 2.62 0 0 0-1.01.913c-.272.409-.476.924-.612 1.547-.129.616-.193 1.34-.193 2.17v1.107c0 .809.061 1.521.182 2.137.122.609.308 1.125.559 1.547.258.416.587.73.988.945.408.208.899.312 1.472.312.673 0 1.228-.107 1.665-.322.437-.215.77-.534.999-.956.236-.423.376-.95.419-1.58zm4.641-.505v-.226c0-.852.121-1.636.365-2.353a5.443 5.443 0 0 1 1.063-1.88 4.774 4.774 0 0 1 1.719-1.235c.68-.3 1.461-.45 2.342-.45s1.665.15 2.352.45a4.747 4.747 0 0 1 1.73 1.236c.472.53.831 1.156 1.074 1.88.244.716.365 1.5.365 2.352v.226c0 .845-.121 1.629-.365 2.352a5.485 5.485 0 0 1-1.074 1.88 4.774 4.774 0 0 1-1.719 1.235c-.68.294-1.461.44-2.342.44s-1.665-.146-2.352-.44a4.868 4.868 0 0 1-1.73-1.235 5.577 5.577 0 0 1-1.063-1.88 7.316 7.316 0 0 1-.365-2.352zm3.093-.226v.226c0 .487.043.941.129 1.364.086.422.222.795.408 1.117.194.315.444.562.752.741.308.18.684.269 1.128.269.43 0 .799-.09 1.107-.269a2.04 2.04 0 0 0 .741-.74c.186-.323.322-.696.408-1.118a6.34 6.34 0 0 0 .14-1.364v-.226c0-.473-.047-.917-.14-1.332a3.503 3.503 0 0 0-.419-1.117 2.078 2.078 0 0 0-.741-.774c-.308-.186-.68-.279-1.117-.279-.437 0-.809.093-1.117.28a2.203 2.203 0 0 0-.742.773 3.694 3.694 0 0 0-.408 1.117c-.086.415-.129.86-.129 1.332zm16.694 3.137v-8.841h3.093V38h-2.911l-.182-2.782zm.343-2.385.913-.021c0 .773-.089 1.493-.268 2.159a5.15 5.15 0 0 1-.806 1.719c-.358.48-.809.855-1.353 1.127-.545.265-1.185.398-1.923.398a4.993 4.993 0 0 1-1.568-.237 3.193 3.193 0 0 1-1.225-.762c-.337-.351-.602-.799-.795-1.343-.186-.551-.279-1.214-.279-1.987v-7.509h3.093v7.53c0 .344.04.634.119.87.086.237.204.43.354.58.15.15.326.258.526.323.208.064.437.096.688.096.637 0 1.139-.129 1.504-.386a2.04 2.04 0 0 0 .784-1.053c.158-.451.236-.953.236-1.504zM179.87 21.5l3.244 2.986v.13h-2.46l-1.686-1.57-1.665 1.57h-2.417v-.162l3.19-2.954h1.794zm12.171 4.877v2.191h-6.768v-2.191h6.768zm-5.092-2.868h3.094v10.989c0 .337.043.594.129.774a.774.774 0 0 0 .408.376c.179.064.405.096.677.096.193 0 .365-.007.515-.021a6.72 6.72 0 0 0 .398-.065l.011 2.277a5.809 5.809 0 0 1-.86.205c-.308.05-.648.075-1.02.075-.681 0-1.275-.111-1.783-.333a2.458 2.458 0 0 1-1.161-1.096c-.272-.501-.408-1.16-.408-1.976V23.509zm14.599 5.177V38h-1.998V26.377h1.89l.108 2.31zm-.408 3.062-.924-.032a7.952 7.952 0 0 1 .311-2.202c.201-.68.498-1.271.892-1.773a3.958 3.958 0 0 1 1.472-1.16c.587-.28 1.267-.419 2.041-.419.544 0 1.045.079 1.504.236.458.15.855.39 1.192.72.337.33.598.752.784 1.268.186.515.279 1.138.279 1.869V38h-1.987v-7.648c0-.61-.104-1.096-.311-1.461a1.781 1.781 0 0 0-.86-.795c-.372-.172-.809-.258-1.31-.258-.588 0-1.078.104-1.472.311a2.482 2.482 0 0 0-.945.86 3.848 3.848 0 0 0-.516 1.257c-.1.465-.15.96-.15 1.482zm7.53-1.096-1.332.409c.007-.638.111-1.25.311-1.837.208-.588.505-1.11.892-1.569a4.22 4.22 0 0 1 1.45-1.085c.573-.272 1.228-.408 1.966-.408.623 0 1.175.082 1.654.247a2.99 2.99 0 0 1 1.225.763c.337.337.591.77.763 1.3.172.53.257 1.16.257 1.89V38h-1.998v-7.66c0-.65-.103-1.156-.311-1.514a1.625 1.625 0 0 0-.859-.762c-.366-.15-.803-.226-1.311-.226-.437 0-.824.075-1.16.226-.337.15-.62.358-.849.622a2.727 2.727 0 0 0-.526.892 3.3 3.3 0 0 0-.172 1.074zm15.018 7.563c-.81 0-1.544-.136-2.203-.408a4.99 4.99 0 0 1-1.686-1.171 5.19 5.19 0 0 1-1.074-1.784 6.532 6.532 0 0 1-.376-2.255v-.452c0-.945.139-1.786.419-2.524.279-.745.658-1.375 1.138-1.89a4.875 4.875 0 0 1 1.633-1.171 4.691 4.691 0 0 1 1.891-.398c.83 0 1.547.143 2.148.43a3.91 3.91 0 0 1 1.493 1.203c.387.508.673 1.11.86 1.805.186.687.279 1.44.279 2.255v.892h-8.68v-1.622h6.693v-.15a4.944 4.944 0 0 0-.323-1.504 2.702 2.702 0 0 0-.859-1.203c-.394-.316-.931-.473-1.611-.473a2.703 2.703 0 0 0-2.224 1.128c-.272.372-.483.827-.634 1.364-.15.537-.225 1.157-.225 1.858v.452c0 .551.075 1.07.225 1.557.158.48.383.903.677 1.268.301.365.662.652 1.085.86.43.207.917.31 1.461.31.702 0 1.296-.142 1.783-.429.487-.286.913-.67 1.278-1.15l1.204.957c-.251.38-.57.74-.956 1.085a4.567 4.567 0 0 1-1.429.838c-.559.214-1.221.322-1.987.322zm8.83-9.357V38h-1.988V26.377h1.88l.108 2.481zm-.473 2.89-.827-.032a6.991 6.991 0 0 1 .354-2.202 5.5 5.5 0 0 1 .967-1.773 4.31 4.31 0 0 1 3.405-1.579c.573 0 1.089.079 1.547.236.459.15.849.394 1.171.73.33.337.58.774.752 1.311.172.53.258 1.178.258 1.945V38h-1.998v-7.638c0-.608-.09-1.095-.269-1.46a1.65 1.65 0 0 0-.784-.806c-.344-.172-.766-.258-1.267-.258a2.94 2.94 0 0 0-1.354.311 3.243 3.243 0 0 0-1.042.86 4.342 4.342 0 0 0-.677 1.257c-.157.465-.236.96-.236 1.482zm17.413 3.169c0-.287-.064-.551-.193-.795-.122-.25-.376-.476-.763-.677-.38-.207-.953-.386-1.719-.537a13.655 13.655 0 0 1-1.751-.483 5.314 5.314 0 0 1-1.321-.677 2.835 2.835 0 0 1-.827-.934c-.194-.359-.29-.777-.29-1.257 0-.459.1-.892.301-1.3.207-.408.497-.77.87-1.085a4.222 4.222 0 0 1 1.364-.741 5.513 5.513 0 0 1 1.772-.269c.931 0 1.726.165 2.385.494.659.33 1.164.77 1.515 1.322a3.28 3.28 0 0 1 .526 1.815h-1.987c0-.322-.097-.634-.29-.935a2.14 2.14 0 0 0-.827-.762c-.358-.2-.799-.301-1.322-.301-.551 0-.999.086-1.342.258-.337.164-.584.376-.742.633-.15.258-.225.53-.225.817 0 .215.036.408.107.58.079.165.215.319.408.462.194.136.466.265.817.387.351.121.798.243 1.343.365.952.215 1.736.473 2.352.773.616.301 1.074.67 1.375 1.107.301.437.451.967.451 1.59 0 .508-.107.974-.322 1.396a3.1 3.1 0 0 1-.913 1.096c-.394.3-.867.537-1.418.709a6.336 6.336 0 0 1-1.837.247c-1.024 0-1.891-.183-2.6-.548-.709-.365-1.246-.838-1.611-1.418a3.395 3.395 0 0 1-.548-1.837h1.998c.029.544.187.978.473 1.3.286.315.637.54 1.053.677.415.129.827.193 1.235.193.544 0 .999-.072 1.364-.215.373-.143.656-.34.849-.59.193-.251.29-.538.29-.86zm11.709.398v-8.938h1.998V38h-1.901l-.097-2.685zm.376-2.45.827-.021c0 .773-.082 1.49-.247 2.148a4.622 4.622 0 0 1-.773 1.698c-.358.48-.828.855-1.408 1.127-.58.265-1.285.398-2.116.398a4.699 4.699 0 0 1-1.557-.247 3.115 3.115 0 0 1-1.204-.763c-.336-.344-.598-.791-.784-1.343-.179-.551-.268-1.214-.268-1.987v-7.498H256v7.52c0 .522.057.956.172 1.3.122.336.283.604.483.805.208.193.437.33.688.408.258.079.523.118.795.118.845 0 1.514-.16 2.008-.483.495-.33.849-.77 1.064-1.321a4.99 4.99 0 0 0 .333-1.859zm9.475 5.35c-.81 0-1.544-.136-2.203-.408a5 5 0 0 1-1.686-1.171 5.19 5.19 0 0 1-1.074-1.784 6.532 6.532 0 0 1-.376-2.255v-.452c0-.945.139-1.786.419-2.524.279-.745.659-1.375 1.138-1.89a4.875 4.875 0 0 1 1.633-1.171 4.691 4.691 0 0 1 1.891-.398c.83 0 1.547.143 2.148.43a3.91 3.91 0 0 1 1.493 1.203c.387.508.674 1.11.86 1.805.186.687.279 1.44.279 2.255v.892h-8.68v-1.622h6.693v-.15a4.944 4.944 0 0 0-.323-1.504 2.702 2.702 0 0 0-.859-1.203c-.394-.316-.931-.473-1.611-.473a2.703 2.703 0 0 0-2.224 1.128c-.272.372-.483.827-.634 1.364-.15.537-.225 1.157-.225 1.858v.452c0 .551.075 1.07.225 1.557.158.48.383.903.677 1.268.301.365.663.652 1.085.86.43.207.917.31 1.461.31.702 0 1.296-.142 1.783-.429.487-.286.913-.67 1.279-1.15l1.203.957c-.251.38-.57.74-.956 1.085a4.567 4.567 0 0 1-1.429.838c-.559.214-1.221.322-1.987.322zM280.02 21.5V38h-1.999V21.5h1.999zm10.634 7.111V42.47h-1.998V26.377h1.826l.172 2.234zm7.831 3.48v.226c0 .845-.1 1.63-.3 2.353a5.81 5.81 0 0 1-.881 1.87 4.01 4.01 0 0 1-1.408 1.234c-.558.294-1.199.44-1.922.44-.738 0-1.39-.12-1.955-.364a3.857 3.857 0 0 1-1.44-1.064 5.423 5.423 0 0 1-.945-1.676 9.711 9.711 0 0 1-.473-2.202v-1.203c.086-.86.247-1.63.484-2.31.236-.68.547-1.26.934-1.74.394-.487.87-.856 1.429-1.106.558-.258 1.203-.387 1.933-.387.731 0 1.379.143 1.945.43a3.91 3.91 0 0 1 1.428 1.203c.387.523.677 1.15.871 1.88.2.723.3 1.529.3 2.417zm-1.998.226v-.225c0-.58-.061-1.125-.182-1.633a4.128 4.128 0 0 0-.57-1.354 2.712 2.712 0 0 0-.966-.923c-.394-.23-.863-.344-1.408-.344-.501 0-.938.086-1.31.258a2.84 2.84 0 0 0-.935.698 3.71 3.71 0 0 0-.634.988 5.728 5.728 0 0 0-.354 1.139v2.782c.143.501.344.974.601 1.418a3.12 3.12 0 0 0 1.032 1.064c.429.264.97.397 1.622.397.537 0 .999-.111 1.386-.333.393-.23.716-.54.966-.934.258-.394.448-.846.57-1.354a7.176 7.176 0 0 0 .182-1.644zm11.387 3.696v-5.984c0-.458-.093-.855-.279-1.192a1.825 1.825 0 0 0-.817-.795c-.365-.186-.816-.28-1.353-.28-.501 0-.942.087-1.321.258a2.298 2.298 0 0 0-.881.677c-.208.28-.312.58-.312.903h-1.987c0-.416.107-.828.322-1.236.215-.408.523-.777.924-1.106a4.612 4.612 0 0 1 1.461-.795c.573-.2 1.21-.3 1.912-.3.845 0 1.59.142 2.234.429.652.286 1.161.72 1.526 1.3.372.573.558 1.292.558 2.159v5.414c0 .387.033.798.097 1.235.072.437.175.813.312 1.128V38h-2.074c-.1-.23-.179-.533-.236-.913a7.405 7.405 0 0 1-.086-1.074zm.344-5.06.021 1.397h-2.009c-.565 0-1.07.046-1.514.14-.444.085-.817.218-1.117.397-.301.179-.53.404-.688.676a1.8 1.8 0 0 0-.236.935c0 .365.082.698.247 1 .165.3.412.54.741.719.337.172.748.258 1.235.258.609 0 1.146-.13 1.612-.387a3.356 3.356 0 0 0 1.106-.945c.28-.373.43-.735.451-1.085l.849.956c-.05.3-.186.633-.408.999a4.764 4.764 0 0 1-.892 1.052c-.365.33-.802.606-1.31.828-.502.214-1.067.322-1.698.322-.787 0-1.478-.154-2.073-.462a3.55 3.55 0 0 1-1.375-1.235 3.272 3.272 0 0 1-.483-1.751c0-.623.122-1.171.365-1.644.243-.48.594-.877 1.053-1.192.458-.323 1.009-.566 1.654-.73a8.728 8.728 0 0 1 2.159-.248h2.31zm6.757-2.75V38h-1.988V26.377h1.934l.054 1.826zm3.63-1.89-.01 1.847a2.879 2.879 0 0 0-.473-.064 5.027 5.027 0 0 0-.494-.022c-.458 0-.863.072-1.214.215a2.52 2.52 0 0 0-.892.602 2.916 2.916 0 0 0-.58.924c-.136.35-.225.737-.268 1.16l-.559.322c0-.702.068-1.36.204-1.977a5.39 5.39 0 0 1 .656-1.633c.293-.48.666-.852 1.117-1.117.458-.272 1.002-.408 1.633-.408.143 0 .308.018.494.054.186.028.315.06.386.096zm12.558.064v2.041h-6.66v-2.041h6.66zm-4.877-2.857h2.847v11.128c0 .344.046.61.139.795a.723.723 0 0 0 .419.376c.187.065.409.097.666.097.187 0 .358-.01.516-.032a6.72 6.72 0 0 0 .398-.065l.01 2.127a5.326 5.326 0 0 1-.805.194c-.294.05-.627.075-.999.075-.638 0-1.196-.108-1.676-.322a2.394 2.394 0 0 1-1.117-1.064c-.265-.494-.398-1.146-.398-1.955V23.519zm10.173 13.19 3.115-10.333h3.04l-4.662 13.385a8.99 8.99 0 0 1-.419.934 3.986 3.986 0 0 1-.666.956c-.279.308-.63.559-1.053.752-.415.194-.92.29-1.514.29a3.95 3.95 0 0 1-.688-.053 8.61 8.61 0 0 1-.633-.14v-2.127c.071.007.153.01.247.01.1.008.186.011.257.011.416 0 .76-.05 1.032-.15.272-.093.49-.247.655-.462.172-.208.315-.48.43-.816l.859-2.256zm-1.536-10.333 2.632 8.561.462 2.997-1.955.355-4.201-11.913h3.062zm11.902 2.234V42.47h-2.846V26.377h2.631l.215 2.234zm7.466 3.46v.225c0 .845-.1 1.63-.301 2.352a5.885 5.885 0 0 1-.859 1.88c-.38.53-.852.946-1.418 1.246-.559.294-1.203.44-1.934.44-.716 0-1.339-.135-1.869-.407a3.856 3.856 0 0 1-1.343-1.182 6.515 6.515 0 0 1-.88-1.773 13.243 13.243 0 0 1-.484-2.223v-.72c.108-.852.269-1.625.484-2.32.222-.702.515-1.307.88-1.816.366-.515.81-.913 1.332-1.192.53-.28 1.15-.419 1.859-.419.737 0 1.386.14 1.944.42.566.278 1.042.68 1.429 1.202.387.523.677 1.146.87 1.87.193.723.29 1.528.29 2.416zm-2.847.225v-.226c0-.515-.046-.992-.139-1.428a3.839 3.839 0 0 0-.43-1.16 2.138 2.138 0 0 0-.752-.785c-.308-.186-.68-.279-1.117-.279-.437 0-.813.072-1.128.215a1.984 1.984 0 0 0-.774.612c-.2.265-.358.58-.472.945a5.776 5.776 0 0 0-.215 1.193v1.783c.064.53.19 1.006.376 1.429.186.422.458.759.816 1.01.366.25.838.376 1.418.376.437 0 .81-.097 1.118-.29.307-.194.558-.459.751-.796.194-.343.333-.737.419-1.181.086-.444.129-.917.129-1.418zm10.141 5.919c-.881 0-1.672-.143-2.374-.43a5.212 5.212 0 0 1-1.794-1.192 5.483 5.483 0 0 1-1.128-1.794 6.247 6.247 0 0 1-.387-2.213v-.43c0-.895.129-1.708.387-2.438a5.587 5.587 0 0 1 1.096-1.902 4.816 4.816 0 0 1 1.697-1.224c.659-.287 1.386-.43 2.181-.43.823 0 1.55.14 2.18.42a4.206 4.206 0 0 1 1.579 1.16c.423.5.742 1.102.957 1.804.214.695.322 1.464.322 2.31v1.192h-9.11v-1.955h6.317v-.215a3.428 3.428 0 0 0-.258-1.235 1.978 1.978 0 0 0-.73-.903c-.33-.229-.756-.343-1.279-.343-.422 0-.791.093-1.106.279a2.223 2.223 0 0 0-.774.773c-.2.33-.351.723-.451 1.182-.1.458-.15.967-.15 1.525v.43c0 .487.064.938.193 1.354.136.415.333.777.591 1.084.265.301.58.538.945.71.373.164.795.246 1.268.246.594 0 1.131-.114 1.611-.343.487-.237.91-.584 1.268-1.042l1.428 1.482a4.71 4.71 0 0 1-.988 1.031c-.408.33-.902.598-1.482.806-.58.2-1.25.3-2.009.3zm19.067-2.686V21.5h2.858V38h-2.578l-.28-2.47zm-7.465-3.2v-.227c0-.887.1-1.693.3-2.416.208-.73.509-1.358.903-1.88.394-.523.87-.928 1.428-1.214.566-.287 1.207-.43 1.923-.43.695 0 1.3.14 1.816.42.522.278.966.676 1.332 1.191.372.516.669 1.128.891 1.837.222.702.383 1.476.484 2.32v.613c-.101.824-.262 1.58-.484 2.267a6.446 6.446 0 0 1-.891 1.804c-.366.509-.81.903-1.332 1.182-.523.28-1.135.419-1.837.419-.709 0-1.347-.147-1.912-.44a4.202 4.202 0 0 1-1.429-1.236 5.954 5.954 0 0 1-.892-1.87c-.2-.715-.3-1.496-.3-2.34zm2.846-.227v.226c0 .501.043.97.129 1.407.086.437.226.824.419 1.16.193.33.44.588.741.774.308.186.681.28 1.117.28.559 0 1.017-.122 1.375-.366.366-.25.649-.59.849-1.02a4.66 4.66 0 0 0 .387-1.472v-1.687a4.764 4.764 0 0 0-.226-1.192 2.813 2.813 0 0 0-.494-.945 2.19 2.19 0 0 0-.773-.623c-.308-.15-.674-.226-1.096-.226-.437 0-.809.097-1.117.29a2.137 2.137 0 0 0-.752.784 3.953 3.953 0 0 0-.43 1.171 7.572 7.572 0 0 0-.129 1.44zm15.265 6.113c-.881 0-1.672-.143-2.374-.43a5.212 5.212 0 0 1-1.794-1.192 5.483 5.483 0 0 1-1.128-1.794 6.247 6.247 0 0 1-.387-2.213v-.43c0-.895.129-1.708.387-2.438a5.587 5.587 0 0 1 1.096-1.902 4.816 4.816 0 0 1 1.697-1.224c.659-.287 1.386-.43 2.181-.43.823 0 1.55.14 2.18.42.63.271 1.157.658 1.579 1.16a5.04 5.04 0 0 1 .956 1.804c.215.695.323 1.464.323 2.31v1.192h-9.11v-1.955h6.317v-.215a3.45 3.45 0 0 0-.258-1.235 1.974 1.974 0 0 0-.731-.903c-.329-.229-.755-.343-1.278-.343-.422 0-.791.093-1.106.279a2.223 2.223 0 0 0-.774.773c-.2.33-.351.723-.451 1.182-.1.458-.15.967-.15 1.525v.43c0 .487.064.938.193 1.354.136.415.333.777.591 1.084.265.301.58.538.945.71.373.164.795.246 1.268.246.594 0 1.131-.114 1.611-.343.487-.237.91-.584 1.268-1.042l1.428 1.482a4.734 4.734 0 0 1-.988 1.031c-.408.33-.902.598-1.482.806-.58.2-1.25.3-2.009.3zm16.865-2.235c.401 0 .759-.078 1.074-.236.315-.157.566-.38.752-.666.194-.286.297-.62.312-.999h2.675a3.775 3.775 0 0 1-.666 2.116 4.566 4.566 0 0 1-1.719 1.483c-.709.358-1.504.537-2.385.537-.895 0-1.676-.15-2.342-.451a4.56 4.56 0 0 1-1.665-1.257 5.559 5.559 0 0 1-.988-1.87 7.81 7.81 0 0 1-.322-2.277v-.343c0-.81.107-1.569.322-2.278a5.56 5.56 0 0 1 .988-1.869 4.56 4.56 0 0 1 1.665-1.257c.666-.3 1.443-.45 2.331-.45.938 0 1.762.182 2.471.547a4.07 4.07 0 0 1 1.676 1.547c.408.666.619 1.45.634 2.352h-2.675a2.583 2.583 0 0 0-.28-1.117 2.045 2.045 0 0 0-.73-.795c-.315-.2-.698-.3-1.149-.3-.48 0-.881.1-1.204.3-.315.2-.562.477-.741.827-.172.344-.293.73-.365 1.16a8.888 8.888 0 0 0-.097 1.333v.343c0 .473.033.924.097 1.354.072.43.193.816.365 1.16.179.337.426.605.741.806.323.2.731.3 1.225.3zm9.485-14.48V38h-2.846V21.5h2.846zm-.451 10.27h-.838c0-.81.108-1.555.323-2.235.214-.68.519-1.271.913-1.772a4.188 4.188 0 0 1 1.407-1.182 3.981 3.981 0 0 1 1.826-.419 4.65 4.65 0 0 1 1.558.247c.472.158.877.412 1.214.763.336.35.594.81.773 1.375.186.558.279 1.239.279 2.04V38h-2.857v-7.434c0-.537-.079-.96-.236-1.267a1.416 1.416 0 0 0-.677-.677c-.287-.136-.641-.204-1.064-.204-.458 0-.852.09-1.181.268-.33.172-.602.412-.817.72a3.516 3.516 0 0 0-.472 1.064 5.312 5.312 0 0 0-.151 1.3zm16.361 3.76v-5.361c0-.394-.068-.734-.204-1.02a1.479 1.479 0 0 0-.624-.667c-.279-.157-.633-.236-1.063-.236-.38 0-.713.065-.999.194a1.48 1.48 0 0 0-.645.547c-.15.23-.225.494-.225.795h-2.847c0-.48.115-.934.344-1.364.229-.437.555-.824.977-1.16a4.82 4.82 0 0 1 1.537-.806c.601-.193 1.274-.29 2.019-.29.881 0 1.665.15 2.353.451.694.294 1.239.738 1.632 1.332.402.595.602 1.343.602 2.245v5.07c0 .58.036 1.079.107 1.494.079.408.194.763.344 1.063V38h-2.889c-.137-.294-.24-.666-.312-1.117a8.71 8.71 0 0 1-.107-1.354zm.397-4.61.022 1.687h-1.794c-.444 0-.835.047-1.171.14a2.153 2.153 0 0 0-.827.387 1.573 1.573 0 0 0-.484.601c-.107.23-.161.49-.161.785 0 .286.064.544.193.773.136.23.33.412.58.548.258.129.559.193.903.193.501 0 .938-.1 1.31-.3.373-.208.663-.459.87-.753.208-.293.319-.573.333-.837l.817 1.224c-.1.294-.251.605-.451.935a4.23 4.23 0 0 1-.774.924 3.935 3.935 0 0 1-1.138.709c-.444.186-.96.279-1.547.279-.752 0-1.425-.15-2.02-.451a3.584 3.584 0 0 1-1.407-1.236 3.171 3.171 0 0 1-.516-1.783c0-.616.115-1.16.344-1.633.229-.472.569-.87 1.021-1.192.451-.33 1.009-.577 1.675-.741.674-.172 1.443-.258 2.31-.258h1.912zm11.935 4.32v-8.863h2.857V38h-2.685l-.172-2.76zm.365-2.407.881-.021c0 .78-.086 1.5-.258 2.159a4.874 4.874 0 0 1-.806 1.719c-.358.48-.813.855-1.364 1.127-.551.265-1.203.398-1.955.398a4.93 4.93 0 0 1-1.568-.237 3.193 3.193 0 0 1-1.225-.762c-.337-.351-.598-.799-.784-1.343-.186-.551-.28-1.214-.28-1.987v-7.509h2.836v7.53c0 .387.043.71.129.967.093.258.219.47.376.634.165.157.355.272.57.344.222.064.458.096.709.096.687 0 1.228-.136 1.622-.408a2.3 2.3 0 0 0 .859-1.117 4.625 4.625 0 0 0 .258-1.59zM454.978 38h-2.858V25.303c0-.874.168-1.608.505-2.202a3.275 3.275 0 0 1 1.439-1.365c.624-.308 1.358-.462 2.203-.462.279 0 .544.018.795.054.257.036.512.086.762.15l-.053 2.16a2.713 2.713 0 0 0-.452-.076 5.85 5.85 0 0 0-.526-.021c-.387 0-.716.068-.988.204-.272.136-.48.337-.623.602-.136.258-.204.576-.204.956V38zm2.352-11.623v2.041h-6.961v-2.041h6.961zM462.798 38h-2.858V25.303c0-.874.169-1.608.505-2.202a3.277 3.277 0 0 1 1.44-1.365c.623-.308 1.357-.462 2.202-.462.279 0 .544.018.795.054.258.036.512.086.763.15l-.054 2.16a2.7 2.7 0 0 0-.451-.076 5.874 5.874 0 0 0-.527-.021c-.386 0-.716.068-.988.204-.272.136-.48.337-.623.602-.136.258-.204.576-.204.956V38zm2.352-11.623v2.041h-6.961v-2.041h6.961zm8.154 9.152v-5.36c0-.394-.068-.734-.204-1.02a1.477 1.477 0 0 0-.623-.667c-.28-.157-.634-.236-1.064-.236-.379 0-.712.065-.999.194a1.47 1.47 0 0 0-.644.547c-.151.23-.226.494-.226.795h-2.847c0-.48.115-.934.344-1.364.229-.437.555-.824.978-1.16a4.805 4.805 0 0 1 1.536-.806c.601-.193 1.274-.29 2.019-.29.881 0 1.665.15 2.353.451a3.58 3.58 0 0 1 1.633 1.332c.401.595.601 1.343.601 2.245v5.07c0 .58.036 1.079.108 1.494.078.408.193.763.343 1.063V38h-2.889c-.136-.294-.24-.666-.312-1.117a8.834 8.834 0 0 1-.107-1.354zm.397-4.608.022 1.686h-1.794c-.444 0-.835.047-1.171.14a2.16 2.16 0 0 0-.827.387 1.573 1.573 0 0 0-.484.601c-.107.23-.161.49-.161.785 0 .286.065.544.193.773.137.23.33.412.581.548.257.129.558.193.902.193.501 0 .938-.1 1.31-.3a2.58 2.58 0 0 0 .871-.753c.207-.293.318-.573.333-.837l.816 1.224c-.1.294-.251.605-.451.935a4.23 4.23 0 0 1-.774.924 3.935 3.935 0 0 1-1.138.709c-.444.186-.96.279-1.547.279-.752 0-1.425-.15-2.02-.451a3.584 3.584 0 0 1-1.407-1.236 3.171 3.171 0 0 1-.516-1.783c0-.616.115-1.16.344-1.633.229-.472.57-.87 1.021-1.192.451-.33 1.009-.577 1.675-.741.674-.172 1.444-.258 2.31-.258h1.912zm12.407-4.544h2.579v11.268c0 1.053-.23 1.945-.688 2.675a4.293 4.293 0 0 1-1.901 1.676c-.817.387-1.766.58-2.847.58-.466 0-.97-.064-1.515-.193a6.12 6.12 0 0 1-1.557-.613 3.865 3.865 0 0 1-1.236-1.063l1.279-1.676c.386.451.823.792 1.31 1.02a3.571 3.571 0 0 0 1.579.355c.573 0 1.06-.107 1.461-.322.408-.208.72-.516.935-.924.222-.4.333-.895.333-1.482V29.03l.268-2.653zm-7.852 5.951v-.226c0-.887.107-1.693.322-2.416.215-.73.523-1.358.924-1.88a4.277 4.277 0 0 1 1.472-1.214c.58-.287 1.231-.43 1.955-.43.766 0 1.411.14 1.933.42.53.278.967.676 1.311 1.191.351.516.623 1.128.816 1.837.201.702.355 1.476.462 2.32v.613c-.1.824-.261 1.58-.483 2.267a6.593 6.593 0 0 1-.86 1.804 3.754 3.754 0 0 1-1.332 1.182c-.53.28-1.153.419-1.869.419s-1.36-.147-1.933-.44a4.341 4.341 0 0 1-1.472-1.236 5.856 5.856 0 0 1-.924-1.87 8.114 8.114 0 0 1-.322-2.34zm2.836-.226v.226c0 .501.05.97.15 1.407.1.437.254.824.462 1.16.208.33.469.588.784.774.315.186.691.28 1.128.28.587 0 1.067-.122 1.44-.366.379-.25.666-.59.859-1.02.201-.437.329-.928.387-1.472v-1.687a5.097 5.097 0 0 0-.237-1.192 2.926 2.926 0 0 0-.483-.945 2.147 2.147 0 0 0-.795-.623c-.322-.15-.705-.226-1.149-.226-.43 0-.806.097-1.128.29a2.256 2.256 0 0 0-.795.784 4.018 4.018 0 0 0-.473 1.171c-.1.444-.15.924-.15 1.44zm15.372 6.113c-.881 0-1.672-.143-2.374-.43a5.212 5.212 0 0 1-1.794-1.192 5.483 5.483 0 0 1-1.128-1.794 6.247 6.247 0 0 1-.387-2.213v-.43c0-.895.129-1.708.387-2.438a5.587 5.587 0 0 1 1.096-1.902 4.816 4.816 0 0 1 1.697-1.224c.659-.287 1.386-.43 2.181-.43.823 0 1.55.14 2.18.42.63.271 1.157.658 1.579 1.16a5.04 5.04 0 0 1 .956 1.804c.215.695.323 1.464.323 2.31v1.192h-9.11v-1.955h6.317v-.215a3.45 3.45 0 0 0-.258-1.235 1.974 1.974 0 0 0-.731-.903c-.329-.229-.755-.343-1.278-.343-.422 0-.791.093-1.106.279a2.223 2.223 0 0 0-.774.773c-.2.33-.351.723-.451 1.182-.1.458-.15.967-.15 1.525v.43c0 .487.064.938.193 1.354.136.415.333.777.591 1.084.265.301.58.538.945.71.373.164.795.246 1.268.246.594 0 1.131-.114 1.611-.343.487-.237.91-.584 1.268-1.042l1.428 1.482a4.734 4.734 0 0 1-.988 1.031c-.408.33-.902.598-1.482.806-.58.2-1.25.3-2.009.3zm-347.091 16.45-2.385 13.804h-1.267l2.782-16.092h1.182l-.312 2.288zm7.24 3.384-.032.225c-.107.688-.29 1.383-.548 2.084a7.724 7.724 0 0 1-1.01 1.934 5.035 5.035 0 0 1-1.546 1.418c-.602.35-1.307.52-2.117.505a3.858 3.858 0 0 1-1.643-.344 3.787 3.787 0 0 1-1.257-.956 4.125 4.125 0 0 1-.773-1.407 4.55 4.55 0 0 1-.205-1.687l.473-2.965a6.98 6.98 0 0 1 .677-1.783 6.395 6.395 0 0 1 1.139-1.514 5.035 5.035 0 0 1 1.546-1.032 4.54 4.54 0 0 1 1.87-.365c.802.007 1.45.194 1.944.559.494.365.863.841 1.106 1.428a5.91 5.91 0 0 1 .43 1.913c.05.68.032 1.342-.054 1.987zm-1.3.225.033-.236c.071-.487.1-1.002.086-1.547a5.163 5.163 0 0 0-.269-1.547 2.547 2.547 0 0 0-.784-1.181c-.365-.315-.87-.477-1.515-.484a3.632 3.632 0 0 0-1.407.258 4.42 4.42 0 0 0-1.225.72 4.948 4.948 0 0 0-.966 1.074 4.45 4.45 0 0 0-.58 1.31l-.602 3.449c-.022.58.107 1.1.387 1.557.279.452.651.81 1.117 1.075.473.258.985.39 1.536.397.659.007 1.228-.132 1.708-.419.487-.293.895-.68 1.225-1.16a6.7 6.7 0 0 0 .805-1.58 9.64 9.64 0 0 0 .451-1.686zm3.341.13.054-.355a8.47 8.47 0 0 1 .623-2.202 6.975 6.975 0 0 1 1.203-1.89c.501-.56 1.089-1 1.762-1.322.673-.322 1.421-.48 2.245-.473.816.007 1.511.18 2.084.516.573.33 1.031.773 1.375 1.332.351.558.591 1.185.72 1.88.129.687.15 1.393.064 2.116l-.043.354a8.047 8.047 0 0 1-.634 2.192 7.06 7.06 0 0 1-1.213 1.89 5.55 5.55 0 0 1-1.751 1.31c-.674.316-1.422.47-2.246.463-.809-.007-1.503-.176-2.084-.505a3.962 3.962 0 0 1-1.375-1.332 5.464 5.464 0 0 1-.709-1.87 7.19 7.19 0 0 1-.075-2.105zm1.311-.355-.043.354a6.555 6.555 0 0 0-.011 1.633 4.64 4.64 0 0 0 .441 1.526c.236.458.565.83.988 1.117.422.286.952.433 1.59.44.651.007 1.239-.125 1.761-.397a4.354 4.354 0 0 0 1.354-1.096c.387-.465.698-.981.934-1.547a7.73 7.73 0 0 0 .495-1.719l.043-.354c.071-.53.071-1.07 0-1.622a4.676 4.676 0 0 0-.441-1.536 2.87 2.87 0 0 0-.977-1.128c-.423-.294-.953-.444-1.59-.451-.652-.015-1.239.118-1.762.397a4.274 4.274 0 0 0-1.353 1.107 6.4 6.4 0 0 0-.935 1.557 7.565 7.565 0 0 0-.494 1.719zm18.057 3.212 1.526-8.884h1.267L178.807 64h-1.214l.429-2.74zm.57-2.095.644-.021a8.22 8.22 0 0 1-.558 1.987 5.612 5.612 0 0 1-1.021 1.622c-.422.465-.931.83-1.525 1.096-.595.257-1.278.38-2.052.365-.652-.007-1.192-.13-1.622-.365a2.541 2.541 0 0 1-.999-.967 3.737 3.737 0 0 1-.451-1.407 6.785 6.785 0 0 1 .011-1.666l1.267-7.433h1.257l-1.268 7.466a5.971 5.971 0 0 0-.053 1.181 3.1 3.1 0 0 0 .247 1.032c.143.308.358.555.644.74.294.187.677.284 1.15.29.823.015 1.532-.146 2.127-.483a4.043 4.043 0 0 0 1.439-1.407 5.672 5.672 0 0 0 .763-2.03zm6.381-4.823L183.308 64h-1.257l2.009-11.623h1.224l-.311 1.966zm4.307-2.052-.161 1.17a6.627 6.627 0 0 0-.397-.053 3.904 3.904 0 0 0-.409-.021c-.58-.007-1.095.1-1.546.322a3.856 3.856 0 0 0-1.171.902c-.33.38-.605.81-.827 1.29-.222.472-.394.959-.516 1.46l-.505.183c.107-.623.269-1.253.483-1.89a7.31 7.31 0 0 1 .881-1.752 4.41 4.41 0 0 1 1.365-1.289c.544-.322 1.188-.476 1.933-.462.151 0 .297.015.441.043.143.022.286.054.429.097zm12.955 8.97 1.526-8.884h1.267L203.02 64h-1.214l.429-2.74zm.57-2.095.644-.021a8.22 8.22 0 0 1-.558 1.987 5.612 5.612 0 0 1-1.021 1.622c-.422.465-.931.83-1.525 1.096-.595.257-1.279.38-2.052.365-.652-.007-1.192-.13-1.622-.365a2.541 2.541 0 0 1-.999-.967 3.737 3.737 0 0 1-.451-1.407 6.833 6.833 0 0 1 .01-1.666l1.268-7.433h1.257l-1.268 7.466a5.971 5.971 0 0 0-.053 1.181 3.1 3.1 0 0 0 .247 1.032c.143.308.358.555.644.74.294.187.677.284 1.15.29.823.015 1.532-.146 2.127-.483a4.043 4.043 0 0 0 1.439-1.407 5.672 5.672 0 0 0 .763-2.03zm6.284-4.254L207.521 64h-1.257l2.008-11.623h1.204l-.387 2.535zm-.698 2.557-.505-.322c.143-.63.361-1.243.655-1.837a6.672 6.672 0 0 1 1.096-1.612c.444-.48.952-.856 1.525-1.128a4.297 4.297 0 0 1 1.934-.408c.637.007 1.163.125 1.579.355.422.222.748.533.977.934.23.394.373.849.43 1.364.064.509.057 1.05-.021 1.623L214.782 64h-1.267l1.299-7.584a4.841 4.841 0 0 0-.01-1.547c-.079-.48-.28-.863-.602-1.15-.322-.293-.806-.44-1.45-.44a3.343 3.343 0 0 0-1.579.355c-.48.236-.91.558-1.289.967a6.02 6.02 0 0 0-.946 1.353c-.25.494-.433 1-.547 1.515zm14.147 6.746c-.788-.007-1.468-.172-2.041-.494a4.02 4.02 0 0 1-1.396-1.29 5.433 5.433 0 0 1-.742-1.825 6.706 6.706 0 0 1-.086-2.074l.065-.472a7.99 7.99 0 0 1 .591-2.127c.3-.702.691-1.336 1.171-1.902a5.592 5.592 0 0 1 1.708-1.364c.651-.344 1.375-.512 2.17-.505.751.007 1.382.165 1.89.473.516.3.924.705 1.225 1.214.301.508.497 1.077.591 1.708.1.63.111 1.274.032 1.933l-.108.784h-8.55l.161-1.095h7.261l.033-.15c.093-.61.061-1.2-.097-1.773a2.85 2.85 0 0 0-.838-1.418c-.408-.373-.956-.562-1.643-.57-.645-.014-1.218.122-1.719.409-.501.28-.935.659-1.3 1.138a6.431 6.431 0 0 0-.87 1.569 7.93 7.93 0 0 0-.462 1.676l-.054.462a5.798 5.798 0 0 0 .011 1.61c.086.538.251 1.032.494 1.483a3.12 3.12 0 0 0 1.01 1.085c.43.272.952.412 1.568.42.688.014 1.307-.123 1.859-.41a6.09 6.09 0 0 0 1.536-1.16l.752.624c-.344.444-.738.82-1.182 1.128a4.79 4.79 0 0 1-1.429.687 5.721 5.721 0 0 1-1.611.226zm14.588-9.378L235.536 64h-1.257l1.998-11.623h1.214l-.365 2.46zm-.677 2.632-.548-.322a8.541 8.541 0 0 1 .645-1.859 6.567 6.567 0 0 1 1.074-1.611 4.923 4.923 0 0 1 1.515-1.117c.58-.273 1.232-.405 1.955-.398.616.007 1.131.118 1.547.333.422.208.755.501.999.881.243.372.401.806.472 1.3.079.494.083 1.024.011 1.59L242.809 64h-1.257l1.31-7.702c.086-.566.076-1.074-.032-1.526a1.853 1.853 0 0 0-.677-1.084c-.343-.273-.83-.412-1.461-.42-.594 0-1.128.119-1.6.355a4.012 4.012 0 0 0-1.236.956 5.81 5.81 0 0 0-.88 1.354 8.076 8.076 0 0 0-.527 1.536zm7.681-1.01-.87.01a6.037 6.037 0 0 1 .655-1.675c.301-.53.673-.992 1.117-1.386a5.112 5.112 0 0 1 1.493-.924 4.702 4.702 0 0 1 1.805-.322c.645 0 1.182.115 1.611.344.43.222.763.53.999.924.244.386.401.838.473 1.353a6.004 6.004 0 0 1-.011 1.644L250.113 64h-1.267l1.289-7.595a4.587 4.587 0 0 0-.011-1.568c-.093-.48-.312-.86-.655-1.139-.337-.286-.831-.426-1.483-.419-.472 0-.92.083-1.342.247a3.683 3.683 0 0 0-1.128.677 4.36 4.36 0 0 0-.87 1.01c-.237.38-.409.795-.516 1.246zm16.382 5.457.999-6.005c.079-.551.028-1.024-.151-1.418a1.825 1.825 0 0 0-.838-.913c-.379-.215-.848-.326-1.407-.333a3.981 3.981 0 0 0-1.461.258c-.48.179-.898.44-1.257.784-.35.344-.583.773-.698 1.29l-1.257-.012a3.222 3.222 0 0 1 .58-1.46c.308-.43.688-.788 1.139-1.075a5.288 5.288 0 0 1 1.483-.655 5.44 5.44 0 0 1 1.568-.215c.766 0 1.432.154 1.998.462.566.3.988.734 1.268 1.3.286.558.379 1.232.279 2.02l-.945 5.617c-.065.38-.108.767-.129 1.16a4.29 4.29 0 0 0 .086 1.14l-.011.139h-1.311a5.571 5.571 0 0 1-.053-1.042c.021-.35.06-.698.118-1.042zm1.085-4.684-.14.989h-2.374c-.444 0-.913.04-1.407.118a5.966 5.966 0 0 0-1.418.408 3.312 3.312 0 0 0-1.15.806c-.315.336-.515.766-.601 1.289-.072.451-.022.845.15 1.181.179.33.441.588.784.774.344.179.731.272 1.161.28a4.475 4.475 0 0 0 1.794-.345 5.015 5.015 0 0 0 1.514-1.01 4.69 4.69 0 0 0 1.042-1.503l.441.752a4.736 4.736 0 0 1-.817 1.343 5.416 5.416 0 0 1-1.181 1.03c-.444.28-.921.498-1.429.656a5.43 5.43 0 0 1-1.547.226 3.859 3.859 0 0 1-1.719-.42 2.871 2.871 0 0 1-1.171-1.127c-.279-.487-.383-1.06-.311-1.719.079-.702.301-1.29.666-1.762.372-.48.834-.863 1.386-1.15a6.736 6.736 0 0 1 1.783-.622 9.364 9.364 0 0 1 1.858-.194h2.686zm6.542-4.855L266.13 64h-1.257l2.009-11.623h1.257zm-.892-3.352a.887.887 0 0 1 .269-.623.848.848 0 0 1 .623-.258.762.762 0 0 1 .612.248c.165.171.236.38.215.623a.858.858 0 0 1-.279.612.895.895 0 0 1-.624.247.78.78 0 0 1-.816-.849zm9.604 11.978c.086-.516-.004-.931-.269-1.246a2.538 2.538 0 0 0-1.042-.741 8.638 8.638 0 0 0-1.257-.42 15.754 15.754 0 0 1-1.3-.386 5.454 5.454 0 0 1-1.171-.59 2.558 2.558 0 0 1-.816-.914c-.193-.365-.265-.813-.215-1.343a2.95 2.95 0 0 1 .484-1.407 3.634 3.634 0 0 1 1.042-.999 4.74 4.74 0 0 1 1.364-.602 5.813 5.813 0 0 1 1.472-.193 4.714 4.714 0 0 1 1.933.408 3.103 3.103 0 0 1 1.375 1.171c.337.509.48 1.142.43 1.902l-1.246-.011c.043-.509-.05-.935-.28-1.279a2.076 2.076 0 0 0-.934-.794 3.14 3.14 0 0 0-1.311-.29c-.444 0-.888.071-1.332.214a3.022 3.022 0 0 0-1.138.666c-.323.301-.523.691-.602 1.171-.064.38-.025.699.118.956.151.251.362.455.634.613.279.157.58.286.902.386.323.1.627.19.913.269.588.158 1.164.362 1.73.612.566.25 1.017.598 1.353 1.042.344.437.48 1.014.409 1.73-.05.573-.219 1.067-.505 1.482-.287.416-.648.76-1.085 1.031a4.912 4.912 0 0 1-1.429.58 6.319 6.319 0 0 1-1.536.194 5.37 5.37 0 0 1-1.998-.398 3.476 3.476 0 0 1-1.504-1.16c-.38-.515-.544-1.16-.494-1.933l1.257.01c-.015.545.104.992.354 1.343.251.351.587.609 1.01.774.43.164.895.25 1.396.257a4.76 4.76 0 0 0 1.386-.214 3.299 3.299 0 0 0 1.236-.677c.358-.308.58-.713.666-1.214zm3.77-2.6.054-.354a8.47 8.47 0 0 1 .623-2.202 6.975 6.975 0 0 1 1.203-1.89c.501-.56 1.089-1 1.762-1.322.673-.322 1.421-.48 2.245-.473.816.007 1.511.18 2.084.516.573.33 1.031.773 1.375 1.332.351.558.591 1.185.72 1.88a6.99 6.99 0 0 1 .064 2.116l-.043.354a8.083 8.083 0 0 1-.634 2.192 7.038 7.038 0 0 1-1.214 1.89 5.527 5.527 0 0 1-1.751 1.31c-.673.316-1.421.47-2.245.463-.809-.007-1.504-.176-2.084-.505a3.953 3.953 0 0 1-1.375-1.332 5.464 5.464 0 0 1-.709-1.87 7.122 7.122 0 0 1-.075-2.105zm1.311-.354-.043.354a6.508 6.508 0 0 0-.011 1.633 4.64 4.64 0 0 0 .44 1.526c.237.458.566.83.989 1.117.422.286.952.433 1.589.44.652.007 1.239-.125 1.762-.397a4.354 4.354 0 0 0 1.354-1.096c.386-.465.698-.981.934-1.547a7.726 7.726 0 0 0 .494-1.719l.043-.354c.072-.53.072-1.07 0-1.622a4.652 4.652 0 0 0-.44-1.536 2.865 2.865 0 0 0-.978-1.128c-.422-.294-.952-.444-1.589-.451-.652-.015-1.239.118-1.762.397a4.289 4.289 0 0 0-1.354 1.107 6.429 6.429 0 0 0-.934 1.557 7.514 7.514 0 0 0-.494 1.719zm13.18-3.137L293.544 64h-1.257l2.009-11.623h1.203l-.387 2.535zm-.698 2.557-.505-.322c.143-.63.362-1.243.655-1.837a6.672 6.672 0 0 1 1.096-1.612 4.97 4.97 0 0 1 1.526-1.128 4.293 4.293 0 0 1 1.933-.408c.638.007 1.164.125 1.579.355.423.222.749.533.978.934.229.394.372.849.429 1.364.065.509.058 1.05-.021 1.623L300.806 64h-1.268l1.3-7.584a4.84 4.84 0 0 0-.011-1.547c-.079-.48-.279-.863-.601-1.15-.323-.293-.806-.44-1.451-.44a3.343 3.343 0 0 0-1.579.355c-.48.236-.909.558-1.289.967a6.048 6.048 0 0 0-.945 1.353 6.42 6.42 0 0 0-.548 1.515zm22.634 4.221 2.46-14.19h1.257L317.907 64h-1.171l.312-2.31zm-7.24-3.34.032-.226c.107-.702.29-1.404.548-2.105a7.765 7.765 0 0 1 1.031-1.945 5.03 5.03 0 0 1 1.558-1.407c.615-.35 1.328-.52 2.137-.505.638.007 1.196.143 1.676.408.48.258.877.609 1.192 1.053.323.444.555.945.699 1.504.15.551.207 1.124.172 1.719l-.462 2.868a6.017 6.017 0 0 1-.656 1.74 6.07 6.07 0 0 1-1.138 1.45 5.008 5.008 0 0 1-1.526.978 4.426 4.426 0 0 1-1.826.333c-.78-.007-1.418-.197-1.912-.57a3.505 3.505 0 0 1-1.106-1.439 6.101 6.101 0 0 1-.462-1.901 9.809 9.809 0 0 1 .043-1.955zm1.321-.237-.032.226a9.722 9.722 0 0 0-.097 1.547c.007.544.086 1.06.236 1.547.158.48.419.873.785 1.181.365.308.862.47 1.493.484a4.043 4.043 0 0 0 1.783-.387 4.698 4.698 0 0 0 1.482-1.117 4.01 4.01 0 0 0 .903-1.6l.58-3.352a3.305 3.305 0 0 0-.161-1.279 3.037 3.037 0 0 0-.591-1.063 2.877 2.877 0 0 0-.967-.73 2.747 2.747 0 0 0-1.246-.28c-.652-.014-1.221.125-1.708.419-.48.286-.888.67-1.225 1.15a6.242 6.242 0 0 0-.805 1.568 9.224 9.224 0 0 0-.43 1.686zm14.599 6.102c-.788-.007-1.469-.172-2.041-.494a4.022 4.022 0 0 1-1.397-1.29 5.411 5.411 0 0 1-.741-1.825 6.676 6.676 0 0 1-.086-2.074l.064-.472a7.99 7.99 0 0 1 .591-2.127 7.47 7.47 0 0 1 1.171-1.902 5.592 5.592 0 0 1 1.708-1.364c.652-.344 1.375-.512 2.17-.505.752.007 1.382.165 1.891.473.515.3.923.705 1.224 1.214a4.65 4.65 0 0 1 .591 1.708c.1.63.111 1.274.032 1.933l-.107.784h-8.551l.161-1.095h7.262l.032-.15c.093-.61.061-1.2-.097-1.773a2.848 2.848 0 0 0-.837-1.418c-.409-.373-.956-.562-1.644-.57-.645-.014-1.217.122-1.719.409-.501.28-.934.659-1.3 1.138a6.431 6.431 0 0 0-.87 1.569 7.93 7.93 0 0 0-.462 1.676l-.053.462a5.798 5.798 0 0 0 .01 1.61 4.63 4.63 0 0 0 .495 1.483c.25.444.587.806 1.009 1.085.43.272.953.412 1.569.42.687.014 1.307-.123 1.858-.41a6.055 6.055 0 0 0 1.536-1.16l.752.624c-.344.444-.737.82-1.181 1.128a4.803 4.803 0 0 1-1.429.687 5.731 5.731 0 0 1-1.611.226zm20.087-15.92L343.141 64h-1.257l2.438-14.04-4.393 1.547.215-1.246 5.435-1.966h.236zm14.083 6.542-.429 2.632a15.594 15.594 0 0 1-.591 2.395 8.86 8.86 0 0 1-1.053 2.192 5.121 5.121 0 0 1-1.665 1.59c-.673.393-1.479.583-2.417.569-.745-.007-1.361-.15-1.847-.43a3.129 3.129 0 0 1-1.15-1.117 4.99 4.99 0 0 1-.591-1.58 8.975 8.975 0 0 1-.161-1.815c.007-.623.054-1.224.14-1.804l.429-2.632c.122-.795.316-1.59.581-2.385a8.738 8.738 0 0 1 1.063-2.17 5.194 5.194 0 0 1 1.665-1.568c.673-.394 1.475-.587 2.406-.58.745.007 1.361.15 1.848.43.494.272.881.64 1.16 1.106.279.465.476.988.591 1.568.115.573.168 1.171.161 1.794a13.5 13.5 0 0 1-.14 1.805zm-1.708 2.782.484-2.954c.057-.422.1-.874.129-1.353a8.839 8.839 0 0 0-.032-1.44 4.034 4.034 0 0 0-.355-1.3 2.213 2.213 0 0 0-.795-.956c-.351-.243-.809-.372-1.375-.386-.738-.015-1.364.146-1.88.483a4.22 4.22 0 0 0-1.267 1.321 7.714 7.714 0 0 0-.806 1.783 13.598 13.598 0 0 0-.451 1.859l-.473 2.943c-.057.408-.1.856-.129 1.343-.028.487-.018.974.032 1.46.058.48.176.925.355 1.333.179.4.44.727.784.977.351.244.809.373 1.375.387.738.014 1.364-.15 1.88-.494a4.238 4.238 0 0 0 1.278-1.343c.337-.558.602-1.16.795-1.804.201-.645.351-1.264.451-1.859zm13.546-2.782-.429 2.632a15.594 15.594 0 0 1-.591 2.395 8.86 8.86 0 0 1-1.053 2.192 5.121 5.121 0 0 1-1.665 1.59c-.673.393-1.479.583-2.417.569-.745-.007-1.361-.15-1.848-.43a3.126 3.126 0 0 1-1.149-1.117 4.99 4.99 0 0 1-.591-1.58 8.975 8.975 0 0 1-.161-1.815c.007-.623.054-1.224.14-1.804l.429-2.632c.122-.795.315-1.59.58-2.385a8.74 8.74 0 0 1 1.064-2.17 5.194 5.194 0 0 1 1.665-1.568c.673-.394 1.475-.587 2.406-.58.745.007 1.361.15 1.848.43.494.272.881.64 1.16 1.106.279.465.476.988.591 1.568.114.573.168 1.171.161 1.794a13.5 13.5 0 0 1-.14 1.805zm-1.708 2.782.484-2.954c.057-.422.1-.874.129-1.353a8.727 8.727 0 0 0-.033-1.44 4.008 4.008 0 0 0-.354-1.3 2.213 2.213 0 0 0-.795-.956c-.351-.243-.809-.372-1.375-.386-.738-.015-1.364.146-1.88.483a4.22 4.22 0 0 0-1.267 1.321 7.714 7.714 0 0 0-.806 1.783 13.598 13.598 0 0 0-.451 1.859l-.473 2.943c-.057.408-.1.856-.129 1.343-.029.487-.018.974.032 1.46.058.48.176.925.355 1.333.179.4.44.727.784.977.351.244.809.373 1.375.387.738.014 1.364-.15 1.88-.494a4.238 4.238 0 0 0 1.278-1.343c.337-.558.602-1.16.795-1.804.201-.645.351-1.264.451-1.859zm5.801-2.782L374.239 64h-1.257l1.998-11.623h1.214l-.365 2.46zm-.677 2.632-.548-.322a8.595 8.595 0 0 1 .645-1.859 6.595 6.595 0 0 1 1.074-1.611 4.923 4.923 0 0 1 1.515-1.117c.58-.273 1.232-.405 1.955-.398.616.007 1.131.118 1.547.333.422.208.755.501.999.881.243.372.401.806.473 1.3.078.494.082 1.024.01 1.59L381.512 64h-1.257l1.31-7.702c.086-.566.076-1.074-.032-1.526a1.853 1.853 0 0 0-.677-1.084c-.343-.273-.83-.412-1.46-.42-.595 0-1.128.119-1.601.355a3.996 3.996 0 0 0-1.235.956 5.782 5.782 0 0 0-.881 1.354 8.147 8.147 0 0 0-.527 1.536zm7.681-1.01-.87.01a6.037 6.037 0 0 1 .655-1.675c.301-.53.673-.992 1.117-1.386a5.104 5.104 0 0 1 1.494-.924 4.693 4.693 0 0 1 1.804-.322c.645 0 1.182.115 1.612.344.429.222.762.53.999.924.243.386.401.838.472 1.353a6.004 6.004 0 0 1-.011 1.644L388.816 64h-1.267l1.289-7.595a4.587 4.587 0 0 0-.011-1.568c-.093-.48-.311-.86-.655-1.139-.337-.286-.831-.426-1.483-.419-.472 0-.92.083-1.342.247a3.683 3.683 0 0 0-1.128.677 4.36 4.36 0 0 0-.87 1.01c-.237.38-.409.795-.516 1.246zm18.734 6.435L401.396 64h-9.507l.15-1.042 5.822-5.768c.43-.43.881-.892 1.354-1.386a9.798 9.798 0 0 0 1.257-1.59 4.623 4.623 0 0 0 .698-1.805c.086-.608.036-1.15-.15-1.622a2.243 2.243 0 0 0-.903-1.117c-.422-.28-.949-.423-1.579-.43-.716-.007-1.353.15-1.912.473a4.046 4.046 0 0 0-1.364 1.31 4.93 4.93 0 0 0-.699 1.837h-1.246c.122-.895.423-1.7.903-2.417a5.18 5.18 0 0 1 1.837-1.686c.752-.415 1.589-.62 2.513-.612.831.007 1.554.179 2.17.515a3.231 3.231 0 0 1 1.397 1.44c.308.623.412 1.357.311 2.202a4.913 4.913 0 0 1-.483 1.633 9.033 9.033 0 0 1-.945 1.493c-.366.472-.756.924-1.171 1.353-.416.423-.817.824-1.203 1.203l-4.996 4.91h7.917z" fill="#fff"/><path d="M475.209 283.455V298h-2.635v-11.982h-.085l-3.402 2.174v-2.415l3.615-2.322h2.507zm9.02 14.744a6.173 6.173 0 0 1-2.039-.362 4.792 4.792 0 0 1-1.789-1.172c-.531-.545-.952-1.267-1.265-2.166-.312-.905-.466-2.025-.461-3.36 0-1.245.132-2.355.397-3.331.266-.975.647-1.799 1.144-2.471a5.045 5.045 0 0 1 1.797-1.549c.705-.355 1.494-.532 2.365-.532.914 0 1.723.18 2.429.539.71.36 1.283.853 1.719 1.478a4.68 4.68 0 0 1 .809 2.102h-2.592c-.133-.559-.405-1.004-.817-1.335-.407-.336-.923-.504-1.548-.504-1.009 0-1.785.437-2.33 1.313-.539.876-.812 2.079-.816 3.608h.099c.232-.416.533-.774.902-1.072a4.126 4.126 0 0 1 1.25-.689 4.412 4.412 0 0 1 1.484-.249c.853 0 1.617.204 2.294.611a4.435 4.435 0 0 1 1.62 1.683c.397.711.594 1.525.589 2.444.005.956-.213 1.815-.653 2.578a4.755 4.755 0 0 1-1.84 1.79c-.786.435-1.702.651-2.748.646zm-.015-2.131c.517 0 .978-.125 1.385-.376.408-.251.73-.59.966-1.016.237-.426.353-.904.348-1.435a2.826 2.826 0 0 0-.341-1.413 2.597 2.597 0 0 0-.944-1.001 2.582 2.582 0 0 0-1.378-.37 2.651 2.651 0 0 0-1.939.831 2.87 2.87 0 0 0-.795 1.975c.004.506.123.973.355 1.399.232.426.551.767.959 1.023.407.255.868.383 1.384.383zm13.033 2.209c-1.169 0-2.173-.296-3.011-.888-.834-.596-1.475-1.456-1.925-2.578-.445-1.127-.668-2.483-.668-4.07.005-1.586.23-2.935.675-4.048.45-1.117 1.092-1.97 1.925-2.557.838-.587 1.839-.88 3.004-.88s2.166.293 3.004.88c.838.587 1.48 1.44 1.925 2.557.45 1.118.675 2.467.675 4.048 0 1.591-.225 2.95-.675 4.077-.445 1.122-1.087 1.979-1.925 2.571-.833.592-1.834.888-3.004.888zm0-2.223c.909 0 1.627-.447 2.152-1.342.53-.9.796-2.223.796-3.971 0-1.155-.121-2.125-.363-2.911-.241-.786-.582-1.378-1.022-1.776a2.244 2.244 0 0 0-1.563-.604c-.904 0-1.619.45-2.145 1.35-.525.895-.79 2.209-.795 3.941-.005 1.161.111 2.136.348 2.927.241.79.582 1.387 1.023 1.789.44.398.963.597 1.569.597zm17.339-7.55-.689 1.513h-9.425l.561-1.513h9.553zm-1.314 2.934-.732 1.534h-8.068l.561-1.534h8.239zm3.103-6.804-.994 2.116a6.9 6.9 0 0 0-.774-.526 4.845 4.845 0 0 0-.959-.426 3.729 3.729 0 0 0-1.15-.17c-.706 0-1.329.187-1.868.561-.54.369-.964.933-1.272 1.69-.303.753-.454 1.707-.454 2.862 0 1.156.151 2.11.454 2.863.308.753.732 1.311 1.272 1.676.539.364 1.162.547 1.868.547.416 0 .8-.055 1.15-.164.35-.109.665-.246.945-.412.284-.165.528-.331.731-.497l1.009 2.117a5.136 5.136 0 0 1-1.755.994 6.434 6.434 0 0 1-2.08.334c-1.213 0-2.287-.296-3.225-.888-.933-.597-1.664-1.451-2.195-2.564-.53-1.117-.795-2.452-.795-4.006 0-1.557.265-2.895.795-4.012.531-1.118 1.262-1.975 2.195-2.571.938-.602 2.012-.902 3.225-.902a5.989 5.989 0 0 1 3.877 1.378zm13.418-1.861-4.687 17.415h-1.534l4.687-17.415h1.534zM531.78 298v-10.909h1.62v1.704h.142a2.742 2.742 0 0 1 1.1-1.356c.507-.327 1.115-.49 1.826-.49.719 0 1.318.163 1.797.49.483.322.859.774 1.129 1.356h.113c.28-.563.699-1.01 1.258-1.342.558-.336 1.228-.504 2.01-.504.975 0 1.773.305 2.393.916.62.606.93 1.551.93 2.834V298h-1.676v-7.301c0-.805-.22-1.38-.66-1.726-.441-.346-.959-.518-1.556-.518-.767 0-1.361.232-1.782.696-.422.459-.632 1.041-.632 1.747V298h-1.705v-7.472c0-.62-.201-1.119-.604-1.498-.402-.384-.921-.575-1.555-.575-.436 0-.843.116-1.222.348a2.633 2.633 0 0 0-.909.965c-.227.408-.341.879-.341 1.414V298h-1.676zm21.815.227c-.985 0-1.849-.234-2.593-.703-.738-.469-1.316-1.124-1.732-1.967-.412-.843-.618-1.828-.618-2.955 0-1.136.206-2.128.618-2.976.416-.847.994-1.505 1.732-1.974.744-.469 1.608-.703 2.593-.703.985 0 1.846.234 2.585.703.743.469 1.321 1.127 1.733 1.974.417.848.625 1.84.625 2.976 0 1.127-.208 2.112-.625 2.955-.412.843-.99 1.498-1.733 1.967-.739.469-1.6.703-2.585.703zm0-1.505c.748 0 1.363-.192 1.846-.576a3.387 3.387 0 0 0 1.073-1.512 5.797 5.797 0 0 0 .348-2.032 5.85 5.85 0 0 0-.348-2.038 3.433 3.433 0 0 0-1.073-1.527c-.483-.388-1.098-.582-1.846-.582s-1.364.194-1.847.582c-.483.388-.84.897-1.072 1.527a5.85 5.85 0 0 0-.348 2.038c0 .729.116 1.407.348 2.032.232.625.589 1.129 1.072 1.512.483.384 1.099.576 1.847.576zm7.502 1.278v-10.909h1.676V298h-1.676zm.852-12.727c-.327 0-.609-.112-.845-.334a1.073 1.073 0 0 1-.348-.803c0-.312.116-.58.348-.802.236-.223.518-.334.845-.334.327 0 .606.111.838.334.237.222.355.49.355.802 0 .313-.118.58-.355.803a1.169 1.169 0 0 1-.838.334zm11.621 4.261-1.506.426a2.753 2.753 0 0 0-.419-.731 2.03 2.03 0 0 0-.738-.597c-.313-.156-.713-.234-1.201-.234-.667 0-1.224.154-1.669.461-.44.303-.66.689-.66 1.158 0 .417.151.746.454.987.303.242.777.443 1.421.604l1.619.398c.975.236 1.702.599 2.18 1.086.479.483.718 1.106.718 1.868 0 .625-.18 1.184-.54 1.676-.355.493-.852.881-1.491 1.165-.64.284-1.383.426-2.231.426-1.112 0-2.033-.241-2.762-.724-.729-.483-1.191-1.189-1.385-2.117l1.591-.397c.151.587.438 1.027.859 1.321.426.293.982.44 1.669.44.781 0 1.402-.166 1.861-.497.464-.336.696-.739.696-1.208 0-.378-.133-.696-.398-.951-.265-.261-.672-.455-1.221-.583l-1.819-.426c-.999-.237-1.733-.603-2.201-1.101-.464-.502-.696-1.129-.696-1.882 0-.615.172-1.16.518-1.633.35-.474.826-.845 1.428-1.115.606-.27 1.292-.405 2.059-.405 1.08 0 1.927.237 2.543.71a3.832 3.832 0 0 1 1.321 1.875zM273.349 109.199c-.947 0-1.794-.178-2.542-.533-.748-.36-1.343-.852-1.783-1.477-.435-.625-.667-1.34-.696-2.145h2.557c.047.597.305 1.084.774 1.463.469.374 1.032.561 1.69.561a2.66 2.66 0 0 0 1.378-.355c.403-.237.72-.566.952-.987.232-.422.346-.902.341-1.442.005-.549-.111-1.037-.348-1.463a2.6 2.6 0 0 0-.973-1.001c-.412-.247-.886-.37-1.421-.37a3.39 3.39 0 0 0-1.285.242c-.422.165-.755.383-1.002.653l-2.379-.39.76-7.5h8.438v2.201h-6.257l-.419 3.857h.085c.27-.317.651-.58 1.143-.789a4.038 4.038 0 0 1 1.62-.32c.88 0 1.666.21 2.357.626a4.42 4.42 0 0 1 1.634 1.704c.398.725.597 1.553.597 2.486 0 .961-.223 1.818-.668 2.571a4.725 4.725 0 0 1-1.84 1.769c-.781.426-1.685.639-2.713.639zm12.976.078c-1.169 0-2.173-.296-3.011-.888-.833-.596-1.475-1.456-1.925-2.578-.445-1.127-.667-2.483-.667-4.07.004-1.586.229-2.935.674-4.048.45-1.117 1.092-1.97 1.925-2.557.838-.587 1.84-.88 3.004-.88 1.165 0 2.166.293 3.005.88.838.588 1.479 1.44 1.924 2.557.45 1.118.675 2.467.675 4.048 0 1.591-.225 2.95-.675 4.077-.445 1.122-1.086 1.979-1.924 2.571-.834.592-1.835.888-3.005.888zm0-2.223c.909 0 1.627-.447 2.152-1.342.531-.9.796-2.223.796-3.971 0-1.155-.121-2.126-.362-2.912-.242-.785-.583-1.377-1.023-1.775a2.24 2.24 0 0 0-1.563-.604c-.904 0-1.619.45-2.145 1.35-.525.895-.79 2.209-.795 3.941-.005 1.161.111 2.136.348 2.927.241.79.582 1.387 1.023 1.789.44.398.963.597 1.569.597zm17.339-7.55-.689 1.513h-9.425l.561-1.513h9.553zm-1.314 2.934-.732 1.534h-8.068l.561-1.534h8.239zm3.103-6.805-.994 2.117a6.847 6.847 0 0 0-.774-.526 4.774 4.774 0 0 0-.959-.426 3.71 3.71 0 0 0-1.15-.17c-.706 0-1.328.187-1.868.56-.54.37-.964.934-1.272 1.691-.303.753-.454 1.707-.454 2.862 0 1.156.151 2.11.454 2.863.308.753.732 1.311 1.272 1.676.54.364 1.162.547 1.868.547.416 0 .8-.055 1.15-.164.351-.109.665-.246.945-.412.284-.165.528-.331.731-.497l1.009 2.117a5.141 5.141 0 0 1-1.754.994 6.445 6.445 0 0 1-2.081.334c-1.212 0-2.287-.296-3.225-.888-.933-.597-1.664-1.451-2.194-2.564-.531-1.117-.796-2.452-.796-4.006 0-1.557.265-2.895.796-4.012.53-1.118 1.261-1.975 2.194-2.571.938-.602 2.013-.902 3.225-.902a6 6 0 0 1 2.109.362 5.812 5.812 0 0 1 1.768 1.016zm13.418-1.86-4.687 17.415h-1.534l4.687-17.415h1.534zM320.858 109V98.09h1.62v1.706h.142a2.738 2.738 0 0 1 1.101-1.357c.506-.327 1.115-.49 1.825-.49.72 0 1.318.163 1.797.49.483.322.859.774 1.129 1.357h.114a3.174 3.174 0 0 1 1.257-1.343c.558-.336 1.228-.504 2.01-.504.975 0 1.773.305 2.393.916.62.606.93 1.551.93 2.834V109H333.5v-7.301c0-.805-.22-1.38-.66-1.726-.44-.346-.959-.519-1.556-.519-.767 0-1.361.233-1.782.697-.422.459-.632 1.041-.632 1.747V109h-1.705v-7.472c0-.62-.201-1.119-.604-1.498-.402-.384-.92-.576-1.555-.576-.436 0-.843.117-1.222.349a2.637 2.637 0 0 0-.909.965c-.227.408-.341.879-.341 1.414V109h-1.676zm21.815.227c-.985 0-1.849-.234-2.592-.703-.739-.469-1.317-1.124-1.733-1.967-.412-.843-.618-1.828-.618-2.955 0-1.136.206-2.128.618-2.976.416-.847.994-1.505 1.733-1.974.743-.469 1.607-.703 2.592-.703.985 0 1.847.234 2.585.703.744.469 1.321 1.127 1.733 1.974.417.848.625 1.84.625 2.976 0 1.127-.208 2.112-.625 2.955-.412.843-.989 1.498-1.733 1.967-.738.469-1.6.703-2.585.703zm0-1.505c.748 0 1.364-.192 1.847-.576.482-.383.84-.887 1.072-1.512a5.797 5.797 0 0 0 .348-2.032 5.85 5.85 0 0 0-.348-2.038 3.44 3.44 0 0 0-1.072-1.527c-.483-.388-1.099-.583-1.847-.583s-1.364.195-1.847.583c-.483.388-.84.897-1.072 1.527a5.85 5.85 0 0 0-.348 2.038c0 .729.116 1.407.348 2.032.232.625.589 1.129 1.072 1.512.483.384 1.099.576 1.847.576zm7.502 1.278V98.09h1.676V109h-1.676zm.852-12.727c-.327 0-.608-.111-.845-.334a1.072 1.072 0 0 1-.348-.803c0-.312.116-.58.348-.802.237-.223.518-.334.845-.334.327 0 .606.111.838.334.237.222.355.49.355.802 0 .313-.118.58-.355.803a1.166 1.166 0 0 1-.838.334zm11.621 4.261-1.506.426a2.753 2.753 0 0 0-.419-.731 2.034 2.034 0 0 0-.738-.597c-.313-.156-.713-.234-1.201-.234-.667 0-1.224.154-1.669.461-.44.303-.66.689-.66 1.158 0 .417.151.746.454.987.303.242.777.443 1.421.604l1.619.398c.976.236 1.702.599 2.181 1.086.478.483.717 1.106.717 1.868 0 .625-.18 1.184-.54 1.676-.355.493-.852.881-1.491 1.165-.64.284-1.383.426-2.23.426-1.113 0-2.034-.241-2.763-.724-.729-.483-1.191-1.189-1.385-2.117l1.591-.397c.151.587.438 1.027.859 1.321.426.293.983.44 1.669.44.781 0 1.402-.166 1.861-.497.464-.336.696-.739.696-1.208 0-.378-.133-.696-.398-.951-.265-.261-.672-.455-1.221-.583l-1.819-.426c-.999-.237-1.732-.603-2.201-1.101-.464-.502-.696-1.129-.696-1.882 0-.615.173-1.16.518-1.633.351-.474.826-.845 1.428-1.115.606-.27 1.292-.405 2.059-.405 1.08 0 1.928.237 2.543.71a3.828 3.828 0 0 1 1.321 1.875zM447.209 219.455V234h-2.635v-11.982h-.085l-3.402 2.174v-2.415l3.615-2.322h2.507zm8.75 14.744c-.947 0-1.795-.178-2.543-.533-.748-.36-1.342-.852-1.782-1.477-.436-.625-.668-1.34-.696-2.145h2.556c.048.597.306 1.084.774 1.463.469.374 1.033.561 1.691.561.516 0 .975-.118 1.378-.355a2.55 2.55 0 0 0 .951-.987c.232-.422.346-.902.341-1.442.005-.549-.111-1.037-.348-1.463a2.594 2.594 0 0 0-.973-1.001c-.412-.247-.885-.37-1.42-.37a3.396 3.396 0 0 0-1.286.242c-.421.165-.755.383-1.001.653l-2.379-.39.76-7.5h8.437v2.201h-6.257l-.419 3.857h.085c.27-.317.651-.58 1.144-.789a4.033 4.033 0 0 1 1.619-.319c.881 0 1.667.208 2.358.625.691.412 1.236.98 1.633 1.704.398.725.597 1.553.597 2.486 0 .961-.223 1.818-.668 2.571a4.722 4.722 0 0 1-1.839 1.769c-.781.426-1.686.639-2.713.639zm12.976.078c-1.17 0-2.174-.296-3.012-.888-.833-.596-1.475-1.456-1.924-2.578-.445-1.127-.668-2.483-.668-4.07.005-1.586.23-2.935.675-4.048.449-1.117 1.091-1.97 1.924-2.557.838-.587 1.84-.88 3.005-.88 1.164 0 2.166.293 3.004.88.838.587 1.48 1.44 1.925 2.557.449 1.118.674 2.467.674 4.048 0 1.591-.225 2.95-.674 4.077-.445 1.122-1.087 1.979-1.925 2.571-.833.592-1.835.888-3.004.888zm0-2.223c.909 0 1.626-.447 2.152-1.342.53-.9.795-2.223.795-3.971 0-1.155-.121-2.125-.362-2.911-.242-.786-.582-1.378-1.023-1.776a2.24 2.24 0 0 0-1.562-.604c-.905 0-1.62.45-2.145 1.35-.526.895-.791 2.209-.796 3.941-.004 1.161.112 2.136.348 2.927.242.79.583 1.387 1.023 1.789.44.398.964.597 1.57.597zm17.097-7.457-.654 1.42h-9.261l.511-1.42h9.404zm-1.222 2.841-.653 1.42h-8.04l.511-1.42h8.182zm2.898-6.677-.682 1.478a5.9 5.9 0 0 0-.959-.711 4.702 4.702 0 0 0-1.058-.461 4.095 4.095 0 0 0-1.165-.164c-.805 0-1.529.223-2.173.668-.644.445-1.153 1.101-1.527 1.967-.374.867-.561 1.93-.561 3.189 0 1.26.187 2.323.561 3.189.374.867.883 1.522 1.527 1.968a3.732 3.732 0 0 0 2.173.667c.417 0 .81-.054 1.179-.163a4.549 4.549 0 0 0 1.044-.448c.327-.189.627-.402.902-.639l.71 1.477a4.989 4.989 0 0 1-1.747 1.066 6.214 6.214 0 0 1-2.088.355c-1.165 0-2.197-.303-3.096-.909-.895-.606-1.598-1.468-2.11-2.585-.506-1.118-.76-2.444-.76-3.978 0-1.534.254-2.86.76-3.977.512-1.117 1.215-1.979 2.11-2.585.899-.606 1.931-.909 3.096-.909.753 0 1.456.13 2.109.39a5.463 5.463 0 0 1 1.755 1.115zm13.499-1.988-4.687 17.415h-1.534l4.687-17.415h1.534zM503.194 234v-10.909h1.62v1.704h.142a2.742 2.742 0 0 1 1.1-1.356c.507-.327 1.116-.49 1.826-.49.719 0 1.318.163 1.797.49.483.322.859.774 1.129 1.356h.114a3.179 3.179 0 0 1 1.257-1.342c.558-.336 1.228-.504 2.01-.504.975 0 1.773.305 2.393.916.62.606.93 1.551.93 2.834V234h-1.676v-7.301c0-.805-.22-1.38-.66-1.726-.441-.346-.959-.518-1.556-.518-.767 0-1.361.232-1.782.696-.422.459-.632 1.041-.632 1.747V234h-1.705v-7.472c0-.62-.201-1.119-.604-1.498-.402-.384-.921-.575-1.555-.575-.436 0-.843.116-1.222.348a2.633 2.633 0 0 0-.909.965c-.227.408-.341.879-.341 1.414V234h-1.676zm21.815.227c-.985 0-1.849-.234-2.592-.703-.739-.469-1.317-1.124-1.733-1.967-.412-.843-.618-1.828-.618-2.955 0-1.136.206-2.128.618-2.976.416-.847.994-1.505 1.733-1.974.743-.469 1.607-.703 2.592-.703.985 0 1.846.234 2.585.703.743.469 1.321 1.127 1.733 1.974.417.848.625 1.84.625 2.976 0 1.127-.208 2.112-.625 2.955-.412.843-.99 1.498-1.733 1.967-.739.469-1.6.703-2.585.703zm0-1.505c.748 0 1.364-.192 1.846-.576a3.387 3.387 0 0 0 1.073-1.512 5.797 5.797 0 0 0 .348-2.032 5.85 5.85 0 0 0-.348-2.038 3.433 3.433 0 0 0-1.073-1.527c-.482-.388-1.098-.582-1.846-.582s-1.364.194-1.847.582c-.483.388-.84.897-1.072 1.527a5.85 5.85 0 0 0-.348 2.038c0 .729.116 1.407.348 2.032.232.625.589 1.129 1.072 1.512.483.384 1.099.576 1.847.576zm7.502 1.278v-10.909h1.676V234h-1.676zm.852-12.727c-.327 0-.609-.112-.845-.334a1.073 1.073 0 0 1-.348-.803c0-.312.116-.58.348-.802.236-.223.518-.334.845-.334.327 0 .606.111.838.334.237.222.355.49.355.802 0 .313-.118.58-.355.803a1.169 1.169 0 0 1-.838.334zm11.621 4.261-1.506.426a2.753 2.753 0 0 0-.419-.731 2.03 2.03 0 0 0-.738-.597c-.313-.156-.713-.234-1.201-.234-.667 0-1.224.154-1.669.461-.44.303-.66.689-.66 1.158 0 .417.151.746.454.987.303.242.777.443 1.421.604l1.619.398c.976.236 1.702.599 2.181 1.086.478.483.717 1.106.717 1.868 0 .625-.18 1.184-.54 1.676-.355.493-.852.881-1.491 1.165-.64.284-1.383.426-2.23.426-1.113 0-2.034-.241-2.763-.724-.729-.483-1.191-1.189-1.385-2.117l1.591-.397c.151.587.438 1.027.859 1.321.426.293.983.44 1.669.44.781 0 1.402-.166 1.861-.497.464-.336.696-.739.696-1.208 0-.378-.133-.696-.398-.951-.265-.261-.672-.455-1.221-.583l-1.819-.426c-.999-.237-1.733-.603-2.201-1.101-.464-.502-.696-1.129-.696-1.882a2.7 2.7 0 0 1 .518-1.633c.351-.474.826-.845 1.428-1.115.606-.27 1.292-.405 2.059-.405 1.08 0 1.927.237 2.543.71a3.832 3.832 0 0 1 1.321 1.875zM546.293 361v-1.903l5.049-4.951c.483-.487.886-.921 1.208-1.299.322-.379.563-.746.724-1.101.161-.355.242-.734.242-1.137 0-.459-.105-.852-.313-1.179a2.082 2.082 0 0 0-.859-.767 2.773 2.773 0 0 0-1.243-.27c-.478 0-.897.1-1.257.299-.36.194-.639.471-.838.831-.194.36-.292.788-.292 1.285h-2.507c0-.923.211-1.726.632-2.407a4.269 4.269 0 0 1 1.741-1.584c.743-.374 1.595-.561 2.556-.561.976 0 1.833.182 2.571.547.739.364 1.312.864 1.719 1.498.412.635.618 1.359.618 2.173 0 .545-.104 1.08-.312 1.606-.209.525-.576 1.107-1.101 1.747-.521.639-1.253 1.413-2.195 2.322l-2.507 2.55v.099h6.335V361h-9.971zm17.798.277c-1.17 0-2.173-.296-3.011-.888-.834-.596-1.475-1.456-1.925-2.578-.445-1.127-.668-2.483-.668-4.07.005-1.586.23-2.935.675-4.048.45-1.117 1.091-1.97 1.925-2.557.838-.587 1.839-.88 3.004-.88s2.166.293 3.004.88c.838.587 1.48 1.44 1.925 2.557.45 1.118.675 2.467.675 4.048 0 1.591-.225 2.95-.675 4.077-.445 1.122-1.087 1.979-1.925 2.571-.833.592-1.835.888-3.004.888zm0-2.223c.909 0 1.626-.447 2.152-1.342.53-.9.795-2.223.795-3.971 0-1.155-.12-2.125-.362-2.911-.241-.786-.582-1.378-1.023-1.776a2.24 2.24 0 0 0-1.562-.604c-.904 0-1.619.45-2.145 1.35-.526.895-.791 2.209-.795 3.941-.005 1.161.111 2.136.348 2.927.241.79.582 1.387 1.022 1.789.441.398.964.597 1.57.597zm13.34 2.223c-1.17 0-2.174-.296-3.012-.888-.833-.596-1.475-1.456-1.924-2.578-.445-1.127-.668-2.483-.668-4.07.005-1.586.23-2.935.675-4.048.45-1.117 1.091-1.97 1.924-2.557.839-.587 1.84-.88 3.005-.88 1.165 0 2.166.293 3.004.88.838.587 1.48 1.44 1.925 2.557.45 1.118.674 2.467.674 4.048 0 1.591-.224 2.95-.674 4.077-.445 1.122-1.087 1.979-1.925 2.571-.833.592-1.835.888-3.004.888zm0-2.223c.909 0 1.626-.447 2.152-1.342.53-.9.795-2.223.795-3.971 0-1.155-.121-2.125-.362-2.911s-.582-1.378-1.023-1.776a2.24 2.24 0 0 0-1.562-.604c-.905 0-1.62.45-2.145 1.35-.526.895-.791 2.209-.796 3.941-.004 1.161.112 2.136.348 2.927.242.79.583 1.387 1.023 1.789.44.398.964.597 1.57.597zm17.338-7.55-.689 1.513h-9.424l.561-1.513h9.552zm-1.314 2.934-.731 1.534h-8.068l.561-1.534h8.238zm3.104-6.804-.994 2.116a7.01 7.01 0 0 0-.775-.526 4.81 4.81 0 0 0-.958-.426 3.735 3.735 0 0 0-1.151-.17c-.705 0-1.328.187-1.868.561-.54.369-.963.933-1.271 1.69-.303.753-.455 1.707-.455 2.862 0 1.156.152 2.11.455 2.863.308.753.731 1.311 1.271 1.676.54.364 1.163.547 1.868.547.417 0 .8-.055 1.151-.164.35-.109.665-.246.944-.412.284-.165.528-.331.732-.497l1.008 2.117a5.123 5.123 0 0 1-1.754.994 6.44 6.44 0 0 1-2.081.334c-1.212 0-2.287-.296-3.224-.888-.933-.597-1.665-1.451-2.195-2.564-.53-1.117-.795-2.452-.795-4.006 0-1.557.265-2.895.795-4.012.53-1.118 1.262-1.975 2.195-2.571.937-.602 2.012-.902 3.224-.902.758 0 1.461.12 2.109.362a5.81 5.81 0 0 1 1.769 1.016zm13.418-1.861-4.688 17.415h-1.534l4.688-17.415h1.534zM611.964 361v-10.909h1.619v1.704h.142a2.739 2.739 0 0 1 1.101-1.356c.507-.327 1.115-.49 1.825-.49.72 0 1.319.163 1.797.49.483.322.86.774 1.129 1.356h.114a3.179 3.179 0 0 1 1.257-1.342c.559-.336 1.229-.504 2.01-.504.975 0 1.773.305 2.394.916.62.606.93 1.551.93 2.834V361h-1.676v-7.301c0-.805-.22-1.38-.661-1.726-.44-.346-.958-.518-1.555-.518-.767 0-1.361.232-1.783.696-.421.459-.632 1.041-.632 1.747V361h-1.704v-7.472c0-.62-.202-1.119-.604-1.498-.403-.384-.921-.575-1.555-.575-.436 0-.843.116-1.222.348a2.633 2.633 0 0 0-.909.965c-.227.408-.341.879-.341 1.414V361h-1.676zm21.814.227c-.984 0-1.849-.234-2.592-.703-.739-.469-1.316-1.124-1.733-1.967-.412-.843-.618-1.828-.618-2.955 0-1.136.206-2.128.618-2.976.417-.847.994-1.505 1.733-1.974.743-.469 1.608-.703 2.592-.703.985 0 1.847.234 2.586.703.743.469 1.321 1.127 1.733 1.974.416.848.625 1.84.625 2.976 0 1.127-.209 2.112-.625 2.955-.412.843-.99 1.498-1.733 1.967-.739.469-1.601.703-2.586.703zm0-1.505c.749 0 1.364-.192 1.847-.576.483-.383.84-.887 1.072-1.512a5.797 5.797 0 0 0 .348-2.032 5.85 5.85 0 0 0-.348-2.038c-.232-.63-.589-1.139-1.072-1.527-.483-.388-1.098-.582-1.847-.582-.748 0-1.363.194-1.846.582a3.433 3.433 0 0 0-1.073 1.527 5.85 5.85 0 0 0-.348 2.038c0 .729.116 1.407.348 2.032.232.625.59 1.129 1.073 1.512.483.384 1.098.576 1.846.576zM641.28 361v-10.909h1.676V361h-1.676zm.852-12.727c-.326 0-.608-.112-.845-.334a1.073 1.073 0 0 1-.348-.803c0-.312.116-.58.348-.802.237-.223.519-.334.845-.334.327 0 .607.111.839.334.236.222.355.49.355.802 0 .313-.119.58-.355.803a1.171 1.171 0 0 1-.839.334zm11.622 4.261-1.506.426a2.808 2.808 0 0 0-.419-.731 2.025 2.025 0 0 0-.739-.597c-.312-.156-.712-.234-1.2-.234-.668 0-1.224.154-1.669.461-.44.303-.661.689-.661 1.158 0 .417.152.746.455.987.303.242.776.443 1.42.604l1.62.398c.975.236 1.702.599 2.18 1.086.478.483.717 1.106.717 1.868 0 .625-.18 1.184-.539 1.676-.355.493-.853.881-1.492 1.165-.639.284-1.382.426-2.23.426-1.113 0-2.034-.241-2.763-.724-.729-.483-1.191-1.189-1.385-2.117l1.591-.397c.152.587.438 1.027.86 1.321.426.293.982.44 1.669.44.781 0 1.401-.166 1.86-.497.464-.336.696-.739.696-1.208 0-.378-.132-.696-.397-.951-.265-.261-.673-.455-1.222-.583l-1.818-.426c-.999-.237-1.733-.603-2.202-1.101-.464-.502-.696-1.129-.696-1.882 0-.615.173-1.16.519-1.633.35-.474.826-.845 1.427-1.115.606-.27 1.293-.405 2.06-.405 1.079 0 1.927.237 2.543.71a3.839 3.839 0 0 1 1.321 1.875zM366.342 157.256a5.974 5.974 0 0 1 2.032.369 4.72 4.72 0 0 1 1.789 1.165c.531.535.952 1.252 1.265 2.152.312.899.468 2.012.468 3.338.005 1.25-.128 2.367-.397 3.352-.266.98-.647 1.809-1.144 2.486a5.042 5.042 0 0 1-1.797 1.548c-.701.355-1.489.533-2.365.533-.918 0-1.733-.18-2.443-.54a4.598 4.598 0 0 1-1.712-1.477 4.697 4.697 0 0 1-.802-2.145h2.592c.133.578.403 1.037.81 1.378.412.336.93.504 1.555.504 1.009 0 1.785-.438 2.33-1.314.544-.876.816-2.093.816-3.65h-.099a3.746 3.746 0 0 1-.902 1.079 4.103 4.103 0 0 1-1.257.689 4.472 4.472 0 0 1-1.477.241c-.853 0-1.62-.203-2.301-.61a4.463 4.463 0 0 1-1.613-1.676c-.393-.711-.592-1.523-.596-2.437 0-.946.218-1.796.653-2.549a4.748 4.748 0 0 1 1.84-1.79c.786-.44 1.704-.656 2.755-.646zm.007 2.13a2.61 2.61 0 0 0-1.385.377 2.664 2.664 0 0 0-.965 1.008 2.885 2.885 0 0 0-.348 1.414c.004.516.12.985.348 1.406.232.421.546.755.944 1.001.403.247.862.37 1.378.37a2.651 2.651 0 0 0 1.939-.831c.251-.265.445-.566.582-.902.142-.336.211-.692.206-1.066a2.76 2.76 0 0 0-.355-1.377 2.735 2.735 0 0 0-.959-1.016 2.523 2.523 0 0 0-1.385-.384zm13.289 12.891c-1.17 0-2.174-.296-3.012-.888-.833-.596-1.474-1.456-1.924-2.578-.445-1.127-.668-2.483-.668-4.07.005-1.586.23-2.935.675-4.048.45-1.117 1.091-1.97 1.925-2.557.838-.587 1.839-.88 3.004-.88s2.166.293 3.004.88c.838.587 1.48 1.44 1.925 2.557.45 1.118.674 2.467.674 4.048 0 1.591-.224 2.95-.674 4.077-.445 1.122-1.087 1.979-1.925 2.571-.833.592-1.835.888-3.004.888zm0-2.223c.909 0 1.626-.447 2.152-1.342.53-.9.795-2.223.795-3.971 0-1.155-.121-2.125-.362-2.911s-.582-1.378-1.023-1.776a2.24 2.24 0 0 0-1.562-.604c-.905 0-1.62.45-2.145 1.35-.526.895-.791 2.209-.796 3.941-.004 1.161.112 2.136.348 2.927.242.79.583 1.387 1.023 1.789.441.398.964.597 1.57.597zm17.338-7.55-.689 1.513h-9.424l.561-1.513h9.552zm-1.314 2.934-.731 1.534h-8.068l.561-1.534h8.238zm3.104-6.804-.994 2.116a7.09 7.09 0 0 0-.774-.526 4.845 4.845 0 0 0-.959-.426 3.735 3.735 0 0 0-1.151-.17c-.705 0-1.328.187-1.868.561-.54.369-.963.933-1.271 1.69-.303.753-.455 1.707-.455 2.862 0 1.156.152 2.11.455 2.863.308.753.731 1.311 1.271 1.676.54.364 1.163.547 1.868.547.417 0 .8-.055 1.151-.164.35-.109.665-.246.944-.412.284-.165.528-.331.732-.497l1.008 2.117a5.123 5.123 0 0 1-1.754.994 6.44 6.44 0 0 1-2.081.334c-1.212 0-2.287-.296-3.224-.888-.933-.597-1.665-1.451-2.195-2.564-.53-1.117-.795-2.452-.795-4.006 0-1.557.265-2.895.795-4.012.53-1.118 1.262-1.975 2.195-2.571.937-.602 2.012-.902 3.224-.902a5.99 5.99 0 0 1 3.878 1.378zm13.418-1.861-4.688 17.415h-1.534l4.688-17.415h1.534zM414.171 172v-10.909h1.619v1.704h.142a2.739 2.739 0 0 1 1.101-1.356c.507-.327 1.115-.49 1.825-.49.72 0 1.319.163 1.797.49.483.322.86.774 1.129 1.356h.114a3.179 3.179 0 0 1 1.257-1.342c.559-.336 1.229-.504 2.01-.504.976 0 1.773.305 2.394.916.62.606.93 1.551.93 2.834V172h-1.676v-7.301c0-.805-.22-1.38-.661-1.726-.44-.346-.958-.518-1.555-.518-.767 0-1.361.232-1.783.696-.421.459-.632 1.041-.632 1.747V172h-1.704v-7.472c0-.62-.202-1.119-.604-1.498-.403-.384-.921-.575-1.555-.575-.436 0-.843.116-1.222.348a2.633 2.633 0 0 0-.909.965c-.227.408-.341.879-.341 1.414V172h-1.676zm21.814.227c-.984 0-1.849-.234-2.592-.703-.739-.469-1.316-1.124-1.733-1.967-.412-.843-.618-1.828-.618-2.955 0-1.136.206-2.128.618-2.976.417-.847.994-1.505 1.733-1.974.743-.469 1.608-.703 2.592-.703.985 0 1.847.234 2.586.703.743.469 1.321 1.127 1.733 1.974.416.848.625 1.84.625 2.976 0 1.127-.209 2.112-.625 2.955-.412.843-.99 1.498-1.733 1.967-.739.469-1.601.703-2.586.703zm0-1.505c.749 0 1.364-.192 1.847-.576.483-.383.84-.887 1.072-1.512a5.797 5.797 0 0 0 .348-2.032 5.85 5.85 0 0 0-.348-2.038c-.232-.63-.589-1.139-1.072-1.527-.483-.388-1.098-.582-1.847-.582-.748 0-1.363.194-1.846.582a3.433 3.433 0 0 0-1.073 1.527 5.85 5.85 0 0 0-.348 2.038c0 .729.116 1.407.348 2.032.232.625.59 1.129 1.073 1.512.483.384 1.098.576 1.846.576zm7.502 1.278v-10.909h1.676V172h-1.676zm.852-12.727c-.326 0-.608-.112-.845-.334a1.073 1.073 0 0 1-.348-.803c0-.312.116-.58.348-.802.237-.223.519-.334.845-.334.327 0 .607.111.839.334.236.222.355.49.355.802 0 .313-.119.58-.355.803a1.171 1.171 0 0 1-.839.334zm11.622 4.261-1.506.426a2.78 2.78 0 0 0-.419-.731 2.025 2.025 0 0 0-.739-.597c-.312-.156-.712-.234-1.2-.234-.668 0-1.224.154-1.669.461-.44.303-.661.689-.661 1.158 0 .417.152.746.455.987.303.242.776.443 1.42.604l1.62.398c.975.236 1.702.599 2.18 1.086.478.483.717 1.106.717 1.868 0 .625-.179 1.184-.539 1.676-.355.493-.853.881-1.492 1.165-.639.284-1.382.426-2.23.426-1.113 0-2.034-.241-2.763-.724-.729-.483-1.191-1.189-1.385-2.117l1.591-.397c.152.587.438 1.027.86 1.321.426.293.982.44 1.669.44.781 0 1.401-.166 1.86-.497.464-.336.696-.739.696-1.208 0-.378-.132-.696-.397-.951-.265-.261-.673-.455-1.222-.583l-1.818-.426c-.999-.237-1.733-.603-2.202-1.101-.464-.502-.696-1.129-.696-1.882 0-.615.173-1.16.519-1.633.35-.474.826-.845 1.427-1.115.606-.27 1.293-.405 2.06-.405 1.079 0 1.927.237 2.543.71a3.839 3.839 0 0 1 1.321 1.875z" fill="#000"/><path d="M197.435 171v-14.545h5.568c1.051 0 1.925.165 2.621.497.7.326 1.224.774 1.569 1.342.351.568.526 1.212.526 1.932 0 .592-.114 1.098-.341 1.52a2.87 2.87 0 0 1-.916 1.015 3.855 3.855 0 0 1-1.286.561v.142a3.172 3.172 0 0 1 1.485.476 3.3 3.3 0 0 1 1.171 1.208c.303.521.455 1.15.455 1.889 0 .753-.182 1.43-.547 2.031-.365.597-.914 1.068-1.648 1.414-.734.345-1.657.518-2.77.518h-5.887zm2.635-2.202h2.833c.957 0 1.646-.182 2.067-.547.426-.369.639-.842.639-1.42a2.176 2.176 0 0 0-1.228-1.989c-.393-.203-.862-.305-1.407-.305h-2.904v4.261zm0-6.157h2.606c.455 0 .864-.083 1.229-.249.364-.17.651-.41.859-.717.213-.313.32-.682.32-1.108 0-.564-.199-1.028-.597-1.392-.393-.365-.978-.547-1.754-.547h-2.663v4.013zm15.154 8.572c-1.065 0-1.989-.234-2.77-.703a4.782 4.782 0 0 1-1.818-1.967c-.426-.843-.639-1.828-.639-2.955s.213-2.114.639-2.962a4.77 4.77 0 0 1 1.818-1.974c.781-.469 1.705-.703 2.77-.703s1.989.234 2.77.703a4.722 4.722 0 0 1 1.811 1.974c.431.848.646 1.835.646 2.962 0 1.127-.215 2.112-.646 2.955a4.734 4.734 0 0 1-1.811 1.967c-.781.469-1.705.703-2.77.703zm.014-2.06c.578 0 1.061-.158 1.449-.475.388-.322.677-.753.867-1.293.194-.54.291-1.141.291-1.804 0-.668-.097-1.271-.291-1.811-.19-.545-.479-.978-.867-1.3-.388-.322-.871-.483-1.449-.483-.592 0-1.084.161-1.477.483-.388.322-.679.755-.874 1.3a5.453 5.453 0 0 0-.284 1.811c0 .663.095 1.264.284 1.804.195.54.486.971.874 1.293.393.317.885.475 1.477.475zm7.396 1.847v-10.909h2.571V171h-2.571zm1.292-12.457a1.5 1.5 0 0 1-1.051-.405 1.304 1.304 0 0 1-.44-.987c0-.389.146-.718.44-.988a1.489 1.489 0 0 1 1.051-.412c.412 0 .762.138 1.051.412.294.27.441.599.441.988 0 .383-.147.712-.441.987-.289.27-.639.405-1.051.405zm12.545 4.431-2.344.256a1.912 1.912 0 0 0-.348-.668 1.732 1.732 0 0 0-.654-.504c-.274-.128-.61-.192-1.008-.192-.535 0-.985.116-1.35.348-.359.232-.537.533-.532.902a.943.943 0 0 0 .348.775c.241.198.639.362 1.193.49l1.861.397c1.032.223 1.799.576 2.301 1.059.506.483.762 1.115.767 1.896a2.964 2.964 0 0 1-.604 1.818c-.393.521-.94.928-1.64 1.222-.701.293-1.506.44-2.415.44-1.335 0-2.41-.279-3.225-.838-.814-.563-1.299-1.347-1.456-2.351l2.508-.241c.113.492.355.864.724 1.115s.85.376 1.442.376c.611 0 1.101-.125 1.47-.376.374-.251.561-.561.561-.931a.971.971 0 0 0-.362-.774c-.237-.203-.606-.36-1.108-.469l-1.861-.39c-1.046-.218-1.821-.585-2.322-1.101-.502-.521-.751-1.179-.746-1.974-.005-.673.177-1.255.547-1.748.374-.497.892-.88 1.555-1.15.668-.275 1.437-.412 2.308-.412 1.279 0 2.285.272 3.019.817.738.544 1.195 1.28 1.371 2.208zM251.179 223.099a3.764 3.764 0 0 0-.49-1.029 3.176 3.176 0 0 0-.739-.789 2.978 2.978 0 0 0-.98-.49 4.109 4.109 0 0 0-1.207-.17c-.781 0-1.477.196-2.088.589-.611.393-1.092.971-1.442 1.733-.346.758-.519 1.681-.519 2.77 0 1.099.173 2.029.519 2.791.346.763.826 1.343 1.442 1.74.615.393 1.33.59 2.145.59.738 0 1.377-.142 1.917-.426a2.997 2.997 0 0 0 1.257-1.208c.294-.525.441-1.141.441-1.846l.596.092h-3.949v-2.06h5.902v1.748c0 1.245-.265 2.322-.795 3.231a5.431 5.431 0 0 1-2.188 2.102c-.928.488-1.993.732-3.196.732-1.34 0-2.516-.301-3.529-.902-1.009-.606-1.797-1.466-2.365-2.578-.564-1.118-.846-2.443-.846-3.978 0-1.174.166-2.223.497-3.146.337-.923.805-1.707 1.407-2.351a5.991 5.991 0 0 1 2.116-1.477 6.74 6.74 0 0 1 2.642-.511c.805 0 1.556.118 2.252.355a5.95 5.95 0 0 1 1.853.994c.545.431.992.942 1.343 1.534.35.592.58 1.245.689 1.96h-2.685zm8.379 10.121c-.691 0-1.314-.123-1.868-.369a3.049 3.049 0 0 1-1.307-1.108c-.317-.488-.476-1.089-.476-1.804 0-.616.114-1.125.341-1.527.227-.403.538-.724.931-.966a4.696 4.696 0 0 1 1.328-.547c.497-.128 1.011-.22 1.541-.277a59.848 59.848 0 0 0 1.555-.177c.398-.057.687-.142.867-.256.184-.118.277-.301.277-.547v-.043c0-.535-.159-.949-.476-1.242-.317-.294-.774-.441-1.371-.441-.63 0-1.129.138-1.498.412-.365.275-.611.599-.739.973l-2.401-.341c.19-.663.502-1.217.938-1.662a4.07 4.07 0 0 1 1.598-1.008c.63-.228 1.326-.341 2.088-.341.526 0 1.049.061 1.57.185.52.123.996.326 1.427.61.431.28.777.661 1.037 1.144.265.483.398 1.086.398 1.811V233h-2.472v-1.499h-.085a3.12 3.12 0 0 1-.661.853 3.18 3.18 0 0 1-1.058.632c-.421.156-.916.234-1.484.234zm.667-1.889c.517 0 .964-.102 1.343-.305.379-.209.67-.483.873-.824.209-.341.313-.713.313-1.115v-1.286c-.081.066-.218.128-.412.185a5.84 5.84 0 0 1-.639.149c-.237.043-.471.08-.703.114l-.604.085a4.5 4.5 0 0 0-1.03.255 1.716 1.716 0 0 0-.717.498c-.175.208-.263.478-.263.809 0 .474.173.831.518 1.073.346.241.786.362 1.321.362zm7.536 1.669v-1.634l5.625-7.052v-.092h-5.44v-2.131h8.586v1.754l-5.355 6.932v.092h5.54V233h-8.956zM224.435 297v-14.545h9.46v2.208h-6.825v3.949h6.335v2.209h-6.335v3.97h6.882V297h-9.517zm14.605-14.545V297h-2.571v-14.545h2.571zm7.474 14.758c-1.094 0-2.039-.227-2.834-.682a4.613 4.613 0 0 1-1.825-1.946c-.426-.843-.639-1.835-.639-2.976 0-1.122.213-2.107.639-2.954.431-.852 1.032-1.515 1.804-1.989.772-.478 1.678-.717 2.72-.717.672 0 1.307.109 1.903.327a4.29 4.29 0 0 1 1.591.994c.464.45.829 1.023 1.094 1.719.265.691.398 1.515.398 2.471v.789h-8.942v-1.733h6.477a2.77 2.77 0 0 0-.319-1.314 2.32 2.32 0 0 0-.874-.916c-.369-.223-.8-.334-1.293-.334-.525 0-.987.128-1.385.383a2.653 2.653 0 0 0-.93.995 2.86 2.86 0 0 0-.334 1.342v1.513c0 .634.116 1.179.348 1.633.232.45.557.796.973 1.037.417.237.905.355 1.463.355.374 0 .713-.052 1.016-.156.303-.109.566-.268.788-.476.223-.208.391-.466.505-.774l2.4.27a3.743 3.743 0 0 1-.866 1.662c-.422.469-.961.833-1.62 1.094-.658.255-1.411.383-2.258.383zm11.784 0c-1.089 0-2.024-.239-2.805-.717a4.783 4.783 0 0 1-1.797-1.982c-.417-.847-.625-1.823-.625-2.926 0-1.108.213-2.086.639-2.933a4.779 4.779 0 0 1 1.804-1.989c.781-.478 1.705-.717 2.77-.717.886 0 1.669.163 2.351.49a4.026 4.026 0 0 1 1.641 1.371c.407.587.639 1.273.696 2.059h-2.458a2.35 2.35 0 0 0-.71-1.314c-.369-.355-.864-.532-1.484-.532a2.32 2.32 0 0 0-1.385.426c-.398.279-.708.682-.931 1.207-.218.526-.326 1.156-.326 1.889 0 .744.108 1.383.326 1.918.218.53.523.94.916 1.229.398.284.865.426 1.4.426.378 0 .717-.071 1.015-.213.303-.147.557-.358.76-.632a2.43 2.43 0 0 0 .419-1.002h2.458c-.062.772-.289 1.456-.682 2.053a4.035 4.035 0 0 1-1.605 1.392c-.677.331-1.473.497-2.387.497zm12.232-11.122v1.989h-6.271v-1.989h6.271zm-4.723-2.614h2.571v10.242c0 .345.052.611.156.795.109.18.251.303.427.37.175.066.369.099.582.099.161 0 .308-.012.44-.036.138-.023.242-.045.313-.063l.433 2.009c-.137.048-.334.1-.589.157-.251.057-.559.09-.924.099-.644.019-1.224-.078-1.74-.291a2.705 2.705 0 0 1-1.228-1.009c-.299-.454-.446-1.022-.441-1.704v-10.668zM272.68 297v-10.909h2.493v1.818h.114c.199-.63.54-1.115 1.023-1.456a2.81 2.81 0 0 1 1.669-.518c.142 0 .3.007.476.021.179.009.329.026.447.05v2.365a2.74 2.74 0 0 0-.518-.1 4.79 4.79 0 0 0-.675-.049c-.469 0-.89.101-1.264.305-.37.199-.661.476-.874.831-.213.355-.32.765-.32 1.229V297h-2.571zm7.93 0v-10.909h2.571V297h-2.571zm1.293-12.457c-.407 0-.758-.135-1.051-.405a1.305 1.305 0 0 1-.441-.987c0-.389.147-.718.441-.988a1.487 1.487 0 0 1 1.051-.412c.412 0 .762.138 1.051.412.293.27.44.599.44.988 0 .383-.147.712-.44.987-.289.27-.639.405-1.051.405zm8.68 12.67c-1.089 0-2.024-.239-2.805-.717a4.797 4.797 0 0 1-1.797-1.982c-.416-.847-.625-1.823-.625-2.926 0-1.108.213-2.086.639-2.933.427-.852 1.028-1.515 1.804-1.989.782-.478 1.705-.717 2.77-.717.886 0 1.669.163 2.351.49a4.013 4.013 0 0 1 1.641 1.371c.407.587.639 1.273.696 2.059h-2.458a2.35 2.35 0 0 0-.71-1.314c-.369-.355-.864-.532-1.484-.532-.526 0-.987.142-1.385.426-.398.279-.708.682-.931 1.207-.217.526-.326 1.156-.326 1.889 0 .744.109 1.383.326 1.918.218.53.524.94.917 1.229.397.284.864.426 1.399.426a2.33 2.33 0 0 0 1.015-.213c.303-.147.557-.358.76-.632.204-.275.344-.609.419-1.002h2.458c-.062.772-.289 1.456-.682 2.053a4.035 4.035 0 0 1-1.605 1.392c-.677.331-1.473.497-2.387.497zm6.785-.213v-10.909h2.571V297h-2.571zm1.293-12.457a1.5 1.5 0 0 1-1.052-.405 1.307 1.307 0 0 1-.44-.987c0-.389.147-.718.44-.988a1.49 1.49 0 0 1 1.052-.412c.411 0 .762.138 1.051.412.293.27.44.599.44.988 0 .383-.147.712-.44.987-.289.27-.64.405-1.051.405zm9.369 1.548v1.989h-6.271v-1.989h6.271zm-4.723-2.614h2.571v10.242c0 .345.052.611.156.795.109.18.251.303.427.37.175.066.369.099.582.099.161 0 .308-.012.44-.036.138-.023.242-.045.313-.063l.433 2.009c-.137.048-.334.1-.589.157-.251.057-.559.09-.924.099-.644.019-1.224-.078-1.74-.291a2.705 2.705 0 0 1-1.228-1.009c-.299-.454-.446-1.022-.441-1.704v-10.668zm11.586 13.736c-1.094 0-2.039-.227-2.834-.682a4.613 4.613 0 0 1-1.825-1.946c-.426-.843-.64-1.835-.64-2.976 0-1.122.214-2.107.64-2.954.431-.852 1.032-1.515 1.804-1.989.771-.478 1.678-.717 2.72-.717.672 0 1.307.109 1.903.327a4.29 4.29 0 0 1 1.591.994c.464.45.829 1.023 1.094 1.719.265.691.398 1.515.398 2.471v.789h-8.942v-1.733h6.477a2.77 2.77 0 0 0-.319-1.314 2.32 2.32 0 0 0-.874-.916c-.369-.223-.8-.334-1.293-.334-.525 0-.987.128-1.385.383a2.653 2.653 0 0 0-.93.995 2.86 2.86 0 0 0-.334 1.342v1.513c0 .634.116 1.179.348 1.633.232.45.557.796.973 1.037.417.237.905.355 1.463.355.374 0 .713-.052 1.016-.156.303-.109.566-.268.788-.476.223-.208.391-.466.505-.774l2.4.27a3.743 3.743 0 0 1-.866 1.662c-.422.469-.962.833-1.62 1.094-.658.255-1.411.383-2.258.383zm-1.193-12.557 1.59-3.245h2.515l-2.181 3.245H313.7zM288.435 361v-14.545h9.318v2.208h-6.683v3.949h6.044v2.209h-6.044V361h-2.635zm11.605 0v-10.909h2.571V361h-2.571zm1.292-12.457a1.5 1.5 0 0 1-1.051-.405 1.307 1.307 0 0 1-.44-.987c0-.389.147-.718.44-.988a1.489 1.489 0 0 1 1.051-.412c.412 0 .763.138 1.052.412.293.27.44.599.44.988 0 .383-.147.712-.44.987-.289.27-.64.405-1.052.405zm8.681 12.67c-1.065 0-1.988-.234-2.77-.703a4.782 4.782 0 0 1-1.818-1.967c-.426-.843-.639-1.828-.639-2.955s.213-2.114.639-2.962a4.77 4.77 0 0 1 1.818-1.974c.782-.469 1.705-.703 2.77-.703s1.989.234 2.77.703a4.722 4.722 0 0 1 1.811 1.974c.431.848.646 1.835.646 2.962 0 1.127-.215 2.112-.646 2.955a4.734 4.734 0 0 1-1.811 1.967c-.781.469-1.705.703-2.77.703zm.014-2.06c.578 0 1.061-.158 1.449-.475.388-.322.677-.753.867-1.293.194-.54.291-1.141.291-1.804 0-.668-.097-1.271-.291-1.811-.19-.545-.479-.978-.867-1.3-.388-.322-.871-.483-1.449-.483-.592 0-1.084.161-1.477.483-.388.322-.679.755-.874 1.3a5.453 5.453 0 0 0-.284 1.811c0 .663.095 1.264.284 1.804.195.54.486.971.874 1.293.393.317.885.475 1.477.475zm14.349-2.741v-6.321h2.571V361h-2.493v-1.939h-.114a3.285 3.285 0 0 1-1.214 1.499c-.559.388-1.248.582-2.067.582-.715 0-1.347-.159-1.896-.476-.545-.322-.971-.788-1.279-1.399-.308-.615-.461-1.359-.461-2.23v-6.946h2.571v6.548c0 .691.189 1.241.568 1.648.379.407.876.611 1.491.611.379 0 .746-.093 1.101-.277.355-.185.646-.46.874-.824.232-.369.348-.831.348-1.385zm7.786-9.957V361h-2.571v-14.545h2.571zM91.435 109V94.454h5.454c1.118 0 2.055.209 2.813.626.762.416 1.337.99 1.726 1.718.393.725.589 1.549.589 2.472 0 .933-.196 1.761-.589 2.486-.393.724-.973 1.295-1.74 1.711-.767.412-1.712.618-2.834.618h-3.615v-2.166h3.26c.653 0 1.188-.114 1.605-.341.416-.227.724-.54.923-.937.204-.398.305-.855.305-1.371s-.101-.97-.305-1.364a2.075 2.075 0 0 0-.93-.916c-.417-.222-.954-.334-1.613-.334H94.07V109h-2.635zm17.359.213c-1.065 0-1.988-.234-2.769-.703a4.778 4.778 0 0 1-1.819-1.967c-.426-.843-.639-1.828-.639-2.955s.213-2.114.639-2.962a4.764 4.764 0 0 1 1.819-1.974c.781-.469 1.704-.703 2.769-.703 1.066 0 1.989.234 2.77.703a4.713 4.713 0 0 1 1.811 1.974c.431.848.647 1.835.647 2.962 0 1.127-.216 2.112-.647 2.955a4.727 4.727 0 0 1-1.811 1.967c-.781.469-1.704.703-2.77.703zm.015-2.06c.577 0 1.06-.158 1.448-.475.389-.322.678-.753.867-1.293.194-.54.291-1.141.291-1.804 0-.668-.097-1.271-.291-1.811-.189-.545-.478-.978-.867-1.3-.388-.322-.871-.483-1.448-.483-.592 0-1.085.161-1.478.483-.388.322-.679.755-.873 1.3-.19.54-.284 1.143-.284 1.811 0 .663.094 1.264.284 1.804.194.54.485.971.873 1.293.393.317.886.475 1.478.475zm7.395 1.847V98.09h2.457v1.855h.128a2.895 2.895 0 0 1 1.129-1.463c.526-.356 1.153-.533 1.882-.533.739 0 1.362.18 1.868.54.512.355.872.84 1.08 1.456h.114a2.978 2.978 0 0 1 1.221-1.45c.578-.364 1.262-.546 2.053-.546 1.003 0 1.823.317 2.457.952.635.634.952 1.56.952 2.777V109h-2.578v-6.925c0-.677-.18-1.172-.54-1.484-.36-.317-.8-.476-1.321-.476-.62 0-1.106.194-1.456.582-.346.384-.519.883-.519 1.499V109h-2.521v-7.031c0-.564-.17-1.014-.511-1.35-.336-.336-.777-.504-1.321-.504-.37 0-.706.095-1.009.284a1.985 1.985 0 0 0-.724.789c-.18.336-.27.729-.27 1.178V109h-2.571zm17.949 4.091v-15h2.528v1.804h.15a4.67 4.67 0 0 1 .561-.845c.241-.303.568-.561.98-.774.412-.218.937-.327 1.577-.327.842 0 1.602.215 2.279.646.682.426 1.222 1.058 1.62 1.896.402.834.603 1.857.603 3.069 0 1.198-.196 2.216-.589 3.054-.393.838-.928 1.477-1.605 1.917-.677.441-1.444.661-2.301.661-.625 0-1.144-.104-1.556-.313a3.152 3.152 0 0 1-.994-.753 4.86 4.86 0 0 1-.575-.845h-.107v5.81h-2.571zm2.521-9.546c0 .706.1 1.324.299 1.854.203.53.494.945.873 1.243.384.294.848.44 1.392.44.568 0 1.044-.151 1.428-.454.383-.308.672-.727.866-1.257.199-.535.299-1.144.299-1.826 0-.677-.097-1.278-.292-1.804-.194-.525-.483-.937-.866-1.235-.384-.299-.862-.448-1.435-.448-.549 0-1.015.145-1.399.433-.383.289-.675.694-.873 1.215-.195.521-.292 1.134-.292 1.839zm14.809 5.668c-1.094 0-2.039-.227-2.834-.682a4.613 4.613 0 0 1-1.825-1.946c-.427-.843-.64-1.835-.64-2.976 0-1.122.213-2.107.64-2.954.43-.852 1.032-1.515 1.803-1.989.772-.478 1.679-.717 2.721-.717.672 0 1.306.109 1.903.327a4.302 4.302 0 0 1 1.591.994c.464.45.829 1.023 1.094 1.719.265.691.397 1.515.397 2.471v.789h-8.941v-1.733h6.477a2.758 2.758 0 0 0-.32-1.314 2.312 2.312 0 0 0-.873-.916c-.37-.223-.8-.334-1.293-.334-.525 0-.987.128-1.385.383a2.637 2.637 0 0 0-.93.995 2.86 2.86 0 0 0-.334 1.342v1.513c0 .634.116 1.179.348 1.633.232.45.556.796.973 1.037.417.237.904.355 1.463.355.374 0 .713-.052 1.016-.156.303-.109.566-.268.788-.476.223-.208.391-.466.504-.774l2.401.27a3.745 3.745 0 0 1-.867 1.662c-.421.469-.961.833-1.619 1.094-.658.255-1.411.383-2.258.383zm15.126.007c-.692 0-1.314-.123-1.868-.369a3.049 3.049 0 0 1-1.307-1.108c-.317-.488-.476-1.089-.476-1.804 0-.616.114-1.125.341-1.527.227-.403.537-.724.93-.966a4.703 4.703 0 0 1 1.329-.547 10.78 10.78 0 0 1 1.541-.277 60.362 60.362 0 0 0 1.555-.177c.398-.057.687-.142.867-.256.184-.118.277-.301.277-.547v-.043c0-.535-.159-.949-.476-1.242-.318-.294-.774-.44-1.371-.44-.63 0-1.129.137-1.499.411-.364.275-.61.599-.738.973l-2.401-.341c.19-.663.502-1.217.938-1.662.435-.45.968-.786 1.598-1.008a6.106 6.106 0 0 1 2.088-.341c.525 0 1.049.061 1.569.184.521.124.997.327 1.428.611.431.28.776.66 1.037 1.144.265.483.398 1.086.398 1.811V109h-2.472v-1.499h-.085a3.139 3.139 0 0 1-.661.853 3.18 3.18 0 0 1-1.058.632c-.421.156-.916.234-1.484.234zm.667-1.889c.516 0 .964-.102 1.343-.305.378-.209.67-.483.873-.824.209-.341.313-.713.313-1.115v-1.286c-.081.066-.218.128-.412.185a5.95 5.95 0 0 1-.639.149c-.237.043-.472.08-.704.114l-.603.085a4.5 4.5 0 0 0-1.03.255 1.716 1.716 0 0 0-.717.498c-.176.208-.263.478-.263.809 0 .474.173.831.518 1.073.346.241.786.362 1.321.362zm-.163-10.675-2.18-3.246h2.521l1.584 3.246h-1.925zm17.56 12.557c-1.089 0-2.024-.239-2.805-.717a4.783 4.783 0 0 1-1.797-1.982c-.417-.847-.625-1.823-.625-2.926 0-1.108.213-2.086.639-2.933a4.773 4.773 0 0 1 1.804-1.989c.781-.478 1.705-.717 2.77-.717.886 0 1.669.163 2.351.49a4.026 4.026 0 0 1 1.641 1.37c.407.588.639 1.274.696 2.06h-2.458a2.35 2.35 0 0 0-.71-1.314c-.369-.355-.864-.532-1.484-.532a2.32 2.32 0 0 0-1.385.426c-.398.279-.708.682-.931 1.207-.218.526-.326 1.156-.326 1.889 0 .744.108 1.383.326 1.918.218.53.523.94.916 1.229.398.284.865.426 1.4.426.378 0 .717-.071 1.015-.213.303-.147.557-.358.76-.632a2.43 2.43 0 0 0 .419-1.002h2.458c-.062.772-.289 1.456-.682 2.053a4.035 4.035 0 0 1-1.605 1.392c-.677.331-1.473.497-2.387.497zm9.356-6.605V109h-2.571V94.454h2.514v5.49h.128c.255-.615.651-1.1 1.186-1.455.54-.36 1.226-.54 2.06-.54.757 0 1.418.159 1.981.476.564.317.999.781 1.307 1.392.312.611.469 1.356.469 2.237V109h-2.571v-6.548c0-.734-.19-1.305-.569-1.712-.374-.412-.899-.618-1.576-.618-.455 0-.862.1-1.222.298a2.094 2.094 0 0 0-.838.846c-.199.369-.298.816-.298 1.342zm12.834 6.612c-.692 0-1.314-.123-1.868-.369a3.043 3.043 0 0 1-1.307-1.108c-.317-.488-.476-1.089-.476-1.804 0-.616.114-1.125.341-1.527.227-.403.537-.724.93-.966a4.708 4.708 0 0 1 1.328-.547c.498-.128 1.011-.22 1.542-.277a60.362 60.362 0 0 0 1.555-.177c.398-.057.687-.142.867-.256.184-.118.276-.301.276-.547v-.043c0-.535-.158-.949-.475-1.242-.318-.294-.775-.44-1.371-.44-.63 0-1.129.137-1.499.411-.364.275-.61.599-.738.973l-2.401-.341c.19-.663.502-1.217.938-1.662.435-.45.968-.786 1.598-1.008a6.106 6.106 0 0 1 2.088-.341c.525 0 1.048.061 1.569.184.521.124.997.327 1.428.611.431.28.776.66 1.037 1.144.265.483.398 1.086.398 1.811V109h-2.472v-1.499h-.085a3.159 3.159 0 0 1-.661.853 3.18 3.18 0 0 1-1.058.632c-.421.156-.916.234-1.484.234zm.667-1.889c.516 0 .964-.102 1.343-.305a2.27 2.27 0 0 0 .873-.824c.208-.341.313-.713.313-1.115v-1.286c-.081.066-.218.128-.412.185-.19.057-.403.106-.64.149-.236.043-.471.08-.703.114l-.603.085a4.5 4.5 0 0 0-1.03.255 1.726 1.726 0 0 0-.718.498c-.175.208-.262.478-.262.809 0 .474.173.831.518 1.073.346.241.786.362 1.321.362zm10.249-12.877V109h-2.571V94.454h2.571zm7.473 14.759c-1.094 0-2.038-.227-2.834-.682a4.62 4.62 0 0 1-1.825-1.946c-.426-.843-.639-1.835-.639-2.976 0-1.122.213-2.107.639-2.954.431-.852 1.032-1.515 1.804-1.989.772-.478 1.679-.717 2.72-.717a5.51 5.51 0 0 1 1.904.327 4.31 4.31 0 0 1 1.591.994c.464.45.828 1.023 1.093 1.719.265.691.398 1.515.398 2.471v.789h-8.942v-1.733h6.477a2.758 2.758 0 0 0-.319-1.314 2.314 2.314 0 0 0-.874-.916c-.369-.223-.8-.334-1.292-.334-.526 0-.988.128-1.385.383a2.647 2.647 0 0 0-.931.995 2.859 2.859 0 0 0-.333 1.342v1.513c0 .634.116 1.179.348 1.633.232.45.556.796.973 1.037.416.237.904.355 1.463.355.374 0 .712-.052 1.015-.156.303-.109.566-.268.789-.476.222-.208.39-.466.504-.774l2.4.27a3.743 3.743 0 0 1-.866 1.662c-.421.469-.961.833-1.619 1.094-.658.255-1.411.383-2.259.383zm13.979-4.801v-6.321h2.571V109h-2.493v-1.939h-.113a3.287 3.287 0 0 1-1.215 1.499c-.559.388-1.247.582-2.067.582-.715 0-1.347-.159-1.896-.476-.544-.322-.971-.788-1.278-1.399-.308-.615-.462-1.359-.462-2.23v-6.946h2.571v6.548c0 .691.189 1.241.568 1.648.379.407.876.611 1.492.611.379 0 .745-.093 1.101-.277.355-.185.646-.46.873-.824.232-.369.348-.831.348-1.385zm5.215 4.588V98.09h2.493v1.82h.114c.198-.63.539-1.116 1.022-1.457a2.816 2.816 0 0 1 1.669-.518c.142 0 .301.007.476.021.18.01.329.026.448.05v2.365a2.737 2.737 0 0 0-.519-.1 4.79 4.79 0 0 0-.675-.049c-.468 0-.89.101-1.264.305-.369.199-.66.476-.873.831-.213.355-.32.765-.32 1.229V109h-2.571z" fill="#fff"/><path d="M40.164 276.772h-2.368v-8.573c0-.659.54-1.199 1.199-1.199.66 0 1.199.54 1.199 1.199l-.03 8.573zM47.388 276.772H45.02v-8.573c0-.659.54-1.199 1.199-1.199.66 0 1.199.54 1.199 1.199l-.03 8.573z" fill="#E0E0E0"/><path d="M68.94 285.045c0 .3-.24.539-.54.539h-7.074a4.632 4.632 0 0 0-4.646 4.647l.06 4.916c0 4.466-3.477 7.943-7.853 7.883-4.317-.06-7.734-3.717-7.734-8.033v-9.892c0-.749.57-1.439 1.32-1.499.868-.09 1.588.6 1.588 1.439v9.952c0 2.697 2.068 5.005 4.766 5.095 2.818.12 5.036-2.098 5.036-4.975l-.06-4.916c0-4.167 3.387-7.554 7.553-7.554h7.104c.3 0 .54.24.54.539v1.859h-.06z" fill="#6C6C6C"/><path opacity=".2" d="M68.34 283.276v1.709h-7.014a5.232 5.232 0 0 0-5.245 5.246l.06 4.916c0 4.076-3.118 7.284-7.134 7.284h-.12c-3.927-.06-7.134-3.388-7.134-7.434v-9.892c0-.48.33-.869.75-.899h.089c.48 0 .84.389.84.839v9.952c0 3.057 2.337 5.575 5.335 5.695h.24c3.057 0 5.425-2.458 5.425-5.575l-.06-4.916a6.96 6.96 0 0 1 6.954-6.955l7.015.03zm.09-.599h-7.104c-4.166 0-7.553 3.387-7.553 7.554l.06 4.916c0 2.787-2.129 4.975-4.826 4.975h-.21c-2.698-.119-4.766-2.428-4.766-5.095v-9.982a1.44 1.44 0 0 0-1.439-1.439h-.15c-.75.06-1.319.75-1.319 1.499v9.862c0 4.316 3.417 7.943 7.734 8.033h.15c4.346 0 7.733-3.447 7.733-7.883l-.06-4.916a4.63 4.63 0 0 1 4.646-4.646h7.104c.3 0 .54-.24.54-.54v-1.858a.549.549 0 0 0-.54-.48z" fill="#EEE"/><path opacity=".2" d="M38.995 267.6a.6.6 0 0 1 .6.599v7.973h-1.2v-7.973a.6.6 0 0 1 .6-.599zm0-.6c-.66 0-1.199.54-1.199 1.199v8.573h2.368v-8.573c0-.659-.54-1.199-1.169-1.199zM46.219 267.6a.6.6 0 0 1 .6.599v7.973h-1.17v-7.973a.558.558 0 0 1 .57-.599zm0-.6c-.66 0-1.199.54-1.199 1.199v8.573h2.368v-8.573c0-.659-.51-1.199-1.169-1.199z" fill="#6C6C6C"/><path d="M50.355 273.025H34.8c-.99 0-1.799.749-1.799 1.769 0 .989.81 1.828 1.798 1.828h.6v5.785c0 1.589 1.08 3.657 2.398 4.526 5.785 3.957 11.99-.09 11.99-5.575v-4.736h.57c.989 0 1.798-.839 1.798-1.858v.03c0-.99-.81-1.769-1.799-1.769z" fill="#F53E14"/><path opacity=".2" d="M50.355 273.924c.51 0 .93.39.93.87 0 .509-.45.929-.93.929h-.569c-.51 0-.9.389-.9.899v4.736c0 3.447-2.817 6.265-6.294 6.265-1.439 0-2.938-.51-4.286-1.439-1.08-.719-2.009-2.518-2.009-3.807v-5.755c0-.51-.39-.899-.899-.899h-.6c-.51 0-.899-.42-.899-.929 0-.48.39-.87.9-.87h15.556zm0-.899H34.8c-.99 0-1.799.749-1.799 1.769 0 .989.81 1.828 1.798 1.828h.6v5.785c0 1.589 1.08 3.657 2.398 4.526 1.619 1.109 3.267 1.589 4.796 1.589 3.957 0 7.194-3.207 7.194-7.164v-4.736h.57c.989 0 1.828-.839 1.828-1.828 0-.99-.84-1.769-1.828-1.769z" fill="#EEE"/><path d="M48.5 202c-9.65 8.112-16.5 17.689-16.5 24.063C32 236.033 38.79 243 48.5 243S65 236.033 65 226.063c0-6.398-6.892-15.983-16.5-24.063zm0 35.875c-4.855 0-8.25-3.123-8.25-7.591 0-1.081.395-4.925 8.25-12.909 7.855 7.984 8.25 11.828 8.25 12.909 0 4.468-3.395 7.591-8.25 7.591z" fill="#F46D0A" fill-opacity=".98"/><path d="M35.979 369.835c-2.194 0-3.979-1.672-3.979-3.727v-27.475c0-2.055 1.785-3.726 3.979-3.726h10.906c2.04 0 3.9 1.409 4.326 3.279l.416 1.824c.068.297.54.809.843.915l.454.159a2.39 2.39 0 0 1 .47-1.012l5.307-6.794c.598-.765 1.679-1.278 2.69-1.278h2.024c.816 0 1.564.338 2.052.927.487.589.65 1.351.448 2.092l-2.44 8.892c-.14.51-.442.95-.846 1.275.677.8 1.094 1.802 1.094 2.794v18.128c0 2.056-1.785 3.727-3.979 3.727H35.98z" fill="#AB1A1A"/><path d="m59.862 345.598-8.123-2.835c-.971-.339-1.943-1.394-2.16-2.343l-.416-1.826c-.216-.949-1.242-1.726-2.278-1.726H35.979c-1.037 0-1.885.794-1.885 1.765v27.475c0 .971.848 1.765 1.885 1.765h23.765c1.036 0 1.884-.794 1.884-1.765V347.98c0-.971-.795-2.043-1.766-2.382zm-23.134-4.562c0-.975.844-1.765 1.885-1.765h6.7c1.041 0 1.885.79 1.885 1.765 0 .975-.843 1.765-1.884 1.765h-6.701c-1.041 0-1.885-.79-1.885-1.765zm15.442 21.377c-2.955 2.93-8.182 2.064-9.82-1.783-.58-1.363-.486-2.739-.04-4.115.578-1.787 1.49-3.429 2.512-5.022.892-1.39 1.886-2.715 2.932-4.007.026-.032.056-.06.121-.129.388.493.764.952 1.12 1.425 1.427 1.895 2.753 3.847 3.742 5.983.473 1.021.867 2.066.997 3.181.2 1.709-.303 3.216-1.564 4.467zm-5.93-2.49c-.72-1.025-1.15-2.145-1.136-3.379.009-.705.12-1.41.18-2.08.015-.017-.007.003-.019.026-.523.996-1.01 2.003-1.292 3.09-.327 1.263-.127 2.433.606 3.528.277.412.678.664 1.186.759.422.08.817-.064 1.027-.37.23-.334.125-.645-.09-.944-.151-.21-.311-.417-.461-.63zm15.206-16.501c-.086.314-.421.478-.745.365l-5.399-1.877c-.324-.113-.422-.418-.218-.68l5.308-6.794c.204-.261.653-.475.999-.475h2.024c.345 0 .558.257.472.57l-2.44 8.891z" fill="#fff"/><path d="M30.858 82.96c-.989 0-.978.01-.978.929v27.066c0 .918.588.95 1.576.95h38.42c.989 0 .978-.032.978-.95V83.889c0-.918.01-.93-.978-.93H30.857zm39.018 30.895H30.857c-1.745 0-3.166-1.301-3.166-2.9V83.889c0-1.6 1.42-2.9 3.167-2.9h39.018c1.746 0 3.167 1.3 3.167 2.9v27.066c0 1.599-1.42 2.9-3.167 2.9z" fill="#76B624"/><path d="M43.42 96.636c-.302 0-.578-.18-.662-.454L41.59 92.34c-.029-.083-.328-1.019.316-1.87.506-.67 1.42-1.054 2.715-1.14.3-.05 3.547-.496 4.806 1.223.465.63.323 1.474-.33 1.96-.765.567-2.553 1.89-3.173 3.16-.152.312-.558.454-.906.316-.347-.137-.505-.501-.352-.814.752-1.538 2.646-2.94 3.556-3.614.11-.082.135-.223.058-.328-.655-.893-2.744-.792-3.493-.68-.908.064-1.49.273-1.745.611-.276.366-.135.824-.133.828l1.175 3.863c.1.329-.115.669-.481.759a.778.778 0 0 1-.182.022zM44.194 105.601c-1.141 0-2.759-.216-3.564-1.314-.464-.621-.326-1.464.325-1.957.768-.569 2.554-1.889 3.166-3.156.15-.313.554-.458.904-.32.348.136.508.5.356.813-.744 1.539-2.637 2.939-3.547 3.612-.107.081-.135.222-.06.323.657.896 2.746.801 3.497.688.899-.064 1.478-.271 1.737-.605.285-.368.139-.841.138-.845l-1.174-3.837c-.1-.329.115-.669.48-.759.367-.09.745.103.846.432l1.168 3.823c.03.083.328 1.019-.314 1.871-.507.672-1.42 1.057-2.715 1.145-.11.017-.6.086-1.243.086" fill="#76B624"/><path d="M51.763 101.619c-.48 0-.952-.189-1.277-.547-.692-.75-2.111-2.288-3.511-2.84-.348-.136-.507-.5-.354-.813.152-.312.556-.456.904-.318 1.7.668 3.26 2.36 4.009 3.172.105.115.26.139.374.071.997-.59.88-2.511.76-3.138-.072-.81-.302-1.332-.674-1.564-.407-.255-.93-.124-.934-.123l-4.29 1.055c-.367.087-.744-.105-.844-.433-.1-.33.116-.67.482-.76l4.272-1.05c.091-.025 1.13-.294 2.076.282.747.456 1.176 1.277 1.274 2.442.055.27.55 3.184-1.366 4.321-.278.164-.59.243-.901.243M38.671 100.599a2.63 2.63 0 0 1-1.371-.367c-.747-.455-1.176-1.277-1.274-2.442-.055-.27-.55-3.189 1.365-4.325.701-.416 1.637-.285 2.176.3.704.763 2.125 2.304 3.513 2.847.348.137.507.501.355.814-.151.312-.558.455-.904.32-1.688-.662-3.25-2.356-4-3.17-.112-.12-.27-.146-.383-.08-.996.591-.886 2.47-.76 3.144.072.816.305 1.34.683 1.57.406.247.912.12.918.119l4.292-1.061c.368-.09.744.102.845.432.1.328-.115.668-.48.758l-4.27 1.055a2.709 2.709 0 0 1-.705.086" fill="#76B624"/><path d="M45.028 96.026c-.857 0-1.553.626-1.553 1.396 0 .77.696 1.396 1.553 1.396.856 0 1.552-.626 1.552-1.396 0-.77-.696-1.396-1.552-1.396zm0 4.027c-1.614 0-2.928-1.18-2.928-2.631 0-1.45 1.314-2.631 2.928-2.631 1.613 0 2.927 1.18 2.927 2.63 0 1.452-1.314 2.632-2.927 2.632z" fill="#76B624"/><path d="M45.027 87.252c-6.528 0-11.207 4.302-11.207 10.17s4.68 10.348 11.207 10.348c6.528 0 11.644-4.48 11.644-10.348s-5.116-10.17-11.644-10.17zm0 22.047c-7.286 0-13.213-5.328-13.213-11.877 0-6.55 5.927-11.878 13.213-11.878s13.214 5.328 13.214 11.878c0 6.549-5.928 11.877-13.214 11.877zM61.166 113.855c-.38 0-.687-.276-.687-.617V81.606c0-.341.308-.618.687-.618.38 0 .687.277.687.618v31.632c0 .341-.308.617-.687.617zM66.782 87.64c-1.341 0-2.433.982-2.433 2.188 0 1.206 1.092 2.188 2.433 2.188 1.342 0 2.434-.982 2.434-2.188 0-1.206-1.092-2.187-2.433-2.187zm0 5.611c-2.1 0-3.807-1.535-3.807-3.423 0-1.887 1.708-3.423 3.807-3.423 2.1 0 3.808 1.536 3.808 3.423 0 1.888-1.708 3.423-3.808 3.423zM69.469 97.814h-5.416c-.38 0-.688-.276-.688-.618 0-.341.308-.617.687-.617h5.417c.38 0 .687.276.687.617 0 .342-.308.618-.687.618zM69.469 101.229h-5.416c-.38 0-.688-.276-.688-.618 0-.341.308-.618.687-.618h5.417c.38 0 .687.277.687.618 0 .342-.308.618-.687.618zM69.469 104.643h-5.416c-.38 0-.688-.276-.688-.618 0-.341.308-.617.687-.617h5.417c.38 0 .687.276.687.617 0 .342-.308.618-.687.618M69.469 108.058h-5.416c-.38 0-.688-.276-.688-.618 0-.341.308-.618.687-.618h5.417c.38 0 .687.277.687.618 0 .342-.308.618-.687.618z" fill="#76B624"/><path d="M61.878 113.855v2.743c0 .098.089.178.198.178h2.953c.11 0 .199-.08.199-.178v-2.743h-3.35zm3.15 4.157h-2.952c-.867 0-1.573-.635-1.573-1.414v-3.361c0-.341.308-.618.688-.618h4.724c.38 0 .687.277.687.618v3.361c0 .779-.706 1.414-1.573 1.414M35.507 113.855v2.743c0 .098.088.178.198.178h2.953c.11 0 .198-.08.198-.178v-2.743h-3.35zm3.151 4.157h-2.953c-.867 0-1.573-.635-1.573-1.414v-3.361c0-.341.308-.618.687-.618h4.724c.38 0 .688.277.688.618v3.361c0 .779-.706 1.414-1.573 1.414zM29.88 82.96h30.73v18.952H57.46c1.221-10.273-5.122-15.851-12.214-15.851-7.092 0-13.73 4.935-12.607 15.851H29.88V82.959z" fill="#76B624"/><path d="M29.88 112.595h30.73v-11.027H57.46c-3.94 5.168-5.91 7.236-11.426 7.236s-11.425-2.412-13.001-7.236H29.88v11.027zM35.395 113.284h3.94v4.135h-3.94v-4.135zM61.399 113.284h3.94v4.135h-3.94v-4.135z" fill="#76B624"/><path d="M69.263 180H30v-3.579h39.263V180zm0-28.632H30V146h39.263v5.368zm-3.926 1.79v21.474h-5.89v-14.316s-4.908-1.79-9.815-1.79c-4.908 0-9.816 1.79-9.816 1.79v14.316h-5.89v-21.474h31.41zm-10.798 13.725h-.058l.667.984.118.215c.824 1.807.255 3.865-1.296 5.19-1.394 1.181-3.357 1.485-5.163 1.27-1.708-.197-3.298-1.181-4.181-2.541a4.132 4.132 0 0 1-.629-1.36l-.255-1.181c-.078-1.718.668-3.525 2.081-4.599-.648 1.288-.49 2.899.471 4.026l.118.144c.157.125.373.178.55.089.176-.054.314-.215.314-.394l-.079-.25c-1.04-2.488-.157-5.387 2.022-7.033.609-.447 1.394-.859 2.12-1.038-.804 1.468-.51 3.364.747 4.51l1.747 1.306.706.662zm-2.728 4.957c.51-.429.824-1.145.765-1.789v-.34c-.235-1.074-1.276-1.414-1.963-2.237l-.471-.806c-.255.537-.275 1.038-.177 1.629.118.608.393 1.127.236 1.754-.177.697-.766 1.395-1.806 1.628.589.519 1.531.93 2.493.644l.923-.483z" fill="#E0B32A"/><path fill="#6C6C6C" d="M0 0h7v400H0zM659 0h7v400h-7z"/><path fill="#6C6C6C" d="M0 7V0h666v7zM0 400v-7h666v7z"/></g><defs><linearGradient id="b" x1="85" y1="101" x2="257" y2="101" gradientUnits="userSpaceOnUse"><stop stop-color="#80DA0F"/><stop offset="1" stop-color="#76B624"/></linearGradient><linearGradient id="c" x1="84" y1="164" x2="355" y2="164" gradientUnits="userSpaceOnUse"><stop stop-color="#F1C644"/><stop offset="1" stop-color="#F46D0A" stop-opacity=".98"/></linearGradient><linearGradient id="d" x1="84" y1="227" x2="429" y2="227" gradientUnits="userSpaceOnUse"><stop stop-color="#F46D0A"/><stop offset="1" stop-color="#F4340A" stop-opacity=".98"/></linearGradient><linearGradient id="e" x1="85" y1="290" x2="457" y2="290" gradientUnits="userSpaceOnUse"><stop stop-color="#F53E14"/><stop offset="1" stop-color="#E51717"/></linearGradient><linearGradient id="f" x1="85" y1="354" x2="539" y2="354" gradientUnits="userSpaceOnUse"><stop stop-color="#E41212"/><stop offset="1" stop-color="#BF1B1B"/></linearGradient><clipPath id="a"><path fill="#fff" d="M0 0h666v400H0z"/></clipPath></defs></svg>